<?xml version="1.0" standalone="no"?>
<!DOCTYPE svg PUBLIC "-//W3C//DTD SVG 20010904//EN"
 "http://www.w3.org/TR/2001/REC-SVG-20010904/DTD/svg10.dtd">
<svg version="1.0" xmlns="http://www.w3.org/2000/svg"
 width="1366.000000pt" height="768.000000pt" viewBox="0 0 1366.000000 768.000000"
 preserveAspectRatio="xMidYMid meet">

<g transform="translate(0.000000,768.000000) scale(0.100000,-0.100000)"
fill="#000000" stroke="none">
<path d="M8261 7076 c-7 -8 -9 -21 -5 -27 4 -7 3 -9 -4 -5 -14 8 -36 -30 -26
-46 4 -6 3 -8 -3 -5 -15 9 -35 -17 -27 -36 3 -8 1 -18 -5 -22 -6 -3 -12 -18
-12 -33 -2 -24 -2 -25 -6 -4 -3 13 1 30 8 38 6 8 9 17 7 20 -3 3 -16 -10 -29
-28 -26 -36 -25 -22 -35 -743 -2 -110 -6 -215 -9 -233 -5 -25 -3 -32 6 -26 8
5 10 3 4 -6 -4 -7 -10 -114 -12 -239 -2 -124 -9 -230 -14 -235 -6 -6 -9 -3 -9
10 0 10 -2 109 -3 219 l-2 200 -32 -1 c-18 -1 -30 2 -27 7 3 5 -8 9 -25 9 -16
0 -33 5 -37 11 -3 6 -16 8 -27 5 -12 -3 -26 -1 -31 3 -18 14 -117 40 -132 34
-8 -3 -14 0 -14 7 0 8 -9 11 -25 8 -15 -3 -22 -1 -18 5 4 6 0 8 -10 4 -48 -20
-52 -20 -32 -4 19 16 19 16 -10 18 -16 2 -38 3 -47 2 -10 0 -18 4 -18 9 0 4
-7 8 -15 8 -11 0 -14 -10 -11 -42 2 -24 -1 -49 -8 -57 -8 -11 -8 -15 2 -18 6
-3 12 -9 12 -14 0 -6 -4 -7 -10 -4 -6 4 -10 -16 -10 -52 0 -41 3 -54 10 -43 5
8 10 10 10 4 0 -6 -9 -19 -19 -28 -18 -17 -19 -16 -19 21 -1 21 -3 75 -6 121
-2 45 -2 82 2 82 4 0 8 224 10 499 l3 498 -45 13 c-24 7 -49 9 -55 5 -6 -3
-11 -2 -11 3 0 6 -17 13 -37 17 -21 5 -47 10 -58 12 -11 2 -30 4 -42 5 -13 0
-21 3 -19 7 2 3 -36 16 -86 27 l-90 21 -51 -49 c-29 -27 -46 -46 -38 -42 10 5
12 3 7 -5 -5 -7 -15 -10 -23 -7 -12 5 -14 -85 -11 -689 l3 -694 -25 -27 c-14
-15 -19 -24 -12 -20 6 4 12 2 12 -4 0 -6 -10 -8 -26 -4 -21 5 -25 4 -19 -6 5
-9 4 -11 -3 -6 -17 10 -74 -26 -67 -43 4 -11 2 -11 -8 -2 -12 9 -14 -60 -13
-464 0 -261 -2 -475 -6 -475 -4 0 -6 -12 -4 -27 2 -16 1 -20 -1 -10 -4 18 -6
18 -24 1 -10 -9 -16 -20 -14 -25 3 -4 1 -10 -5 -14 -5 -3 -10 -12 -10 -18 0
-7 4 -6 10 3 5 8 10 11 10 5 0 -5 -4 -17 -10 -25 -7 -12 -11 -10 -18 11 -50
129 -86 162 -170 156 -43 -3 -59 -10 -85 -36 -19 -17 -37 -28 -42 -24 -4 5 -5
2 -1 -4 4 -7 0 -33 -9 -58 -8 -25 -15 -72 -15 -103 0 -33 -6 -64 -12 -71 -11
-11 -10 -12 2 -6 13 8 13 7 0 -10 -14 -17 -13 -18 8 -13 13 4 23 1 23 -5 8
-68 -2 -100 -36 -115 -19 -9 -24 -6 -39 19 -11 18 -29 32 -47 36 -16 3 -29 9
-29 14 0 5 -6 9 -14 9 -18 0 -24 27 -19 86 4 41 0 61 -26 114 -70 145 -96 170
-175 170 -46 0 -86 -26 -86 -57 0 -7 -4 -13 -9 -13 -5 0 -12 -8 -15 -18 -5
-13 -24 -20 -78 -29 -52 -8 -77 -17 -89 -32 -10 -12 -21 -21 -26 -21 -5 0 -9
-10 -9 -22 1 -13 -4 -22 -10 -21 -7 1 -20 -7 -30 -18 -16 -17 -16 -22 -4 -29
12 -7 12 -12 2 -22 -9 -9 -12 -9 -12 0 0 16 -16 15 -18 0 -1 -7 -5 -32 -8 -55
-3 -24 -10 -43 -16 -43 -5 0 -7 -20 -4 -46 4 -26 2 -43 -4 -39 -5 3 -13 -10
-19 -30 -5 -19 -17 -42 -26 -51 -15 -15 -18 -15 -38 4 -37 35 -118 65 -190 70
-62 4 -68 7 -65 26 2 15 9 20 26 18 18 -3 22 2 22 23 0 14 14 53 32 87 17 34
33 73 34 87 4 35 -16 90 -43 117 -13 13 -23 34 -23 48 0 25 -15 43 -24 28 -3
-5 -46 -7 -96 -7 -90 2 -92 2 -103 -24 l-11 -26 -4 28 c-4 29 -12 33 -30 15
-17 -17 -15 -48 3 -55 14 -5 14 -7 1 -22 -24 -27 -48 -181 -27 -181 6 0 11
-10 11 -23 0 -13 6 -29 12 -35 10 -10 10 -15 -1 -21 -17 -11 -5 -51 15 -51 8
0 14 -9 14 -20 0 -11 -5 -20 -12 -20 -6 0 -20 -8 -31 -17 -15 -13 -21 -15 -24
-5 -3 6 -14 12 -24 12 -11 0 -18 -4 -14 -9 3 -5 1 -12 -5 -16 -5 -3 -10 1 -10
9 0 9 -9 16 -20 16 -15 0 -20 -7 -20 -25 0 -14 -4 -25 -10 -25 -5 0 -10 12
-10 26 0 16 -5 24 -12 22 -17 -6 -23 -49 -8 -58 8 -5 7 -10 -4 -19 -16 -13
-22 -3 -57 93 -17 46 -56 81 -109 97 -43 13 -67 52 -55 88 14 45 6 99 -26 171
-46 105 -93 177 -131 200 -37 22 -103 26 -142 8 -47 -21 -126 -193 -126 -275
0 -31 -2 -33 -34 -33 -46 0 -145 66 -146 96 0 13 8 24 20 27 13 3 20 14 20 30
0 43 -41 191 -58 210 -30 34 -82 49 -145 42 -51 -6 -61 -11 -85 -43 -28 -37
-28 -34 -23 -197 2 -51 6 -63 28 -82 31 -25 26 -58 -7 -48 -16 5 -20 2 -20
-17 0 -13 -6 -32 -13 -42 -12 -16 -17 -17 -38 -6 -51 28 -68 73 -30 83 25 6
32 52 15 100 -8 22 -14 52 -14 68 0 16 -7 47 -16 69 -13 32 -26 45 -69 66 -47
22 -61 25 -112 18 -62 -7 -103 -28 -103 -50 0 -8 -4 -14 -8 -14 -11 0 -35 -78
-27 -90 3 -5 8 -46 10 -91 6 -101 10 -115 36 -122 27 -7 21 -42 -6 -42 -14 0
-21 -8 -23 -25 -2 -14 -14 -38 -26 -55 -12 -16 -30 -51 -40 -77 -10 -26 -28
-56 -41 -66 -13 -11 -27 -32 -30 -48 -11 -52 -76 -203 -101 -234 -11 -14 -25
-63 -25 -85 4 -148 6 -157 30 -176 35 -29 123 -27 148 4 41 53 47 46 40 -47
-3 -49 -11 -93 -16 -100 -14 -16 -37 -168 -51 -326 -16 -191 -15 -198 20 -218
35 -20 35 -19 55 -142 9 -52 25 -113 36 -136 16 -33 19 -62 19 -166 0 -83 5
-137 14 -159 8 -22 16 -98 20 -209 l6 -175 -32 -19 c-65 -39 -81 -46 -87 -41
-3 3 8 17 24 30 25 20 27 26 15 34 -8 5 -17 8 -21 6 -3 -3 -17 7 -29 20 -16
17 -34 25 -56 25 -37 0 -60 20 -42 38 19 19 3 24 -90 30 -71 4 -97 1 -122 -12
-18 -9 -53 -16 -77 -16 -24 0 -52 -4 -61 -9 -9 -4 -36 -11 -59 -15 -39 -6 -43
-4 -43 14 0 17 7 20 39 20 22 0 43 4 46 10 4 6 -10 10 -34 10 -34 0 -41 3 -41
19 0 17 7 19 64 17 35 0 67 2 70 5 7 7 -18 198 -39 304 -8 39 -14 95 -13 125
0 30 -3 63 -7 73 -4 9 -5 32 -3 49 3 18 0 41 -6 51 -8 14 -8 20 4 28 11 8 12
12 3 16 -17 6 -17 40 0 46 9 4 9 8 -2 15 -10 7 -11 21 -6 53 5 24 8 121 7 215
l0 172 66 30 c47 21 77 29 99 25 26 -4 34 0 48 21 15 22 16 39 10 104 -4 42
-8 100 -10 127 -2 28 -16 94 -30 148 -14 54 -27 131 -30 171 -2 39 -7 84 -10
98 -7 26 -88 89 -132 103 -13 3 -23 12 -23 19 0 7 -16 13 -37 14 -21 2 -42 8
-48 14 -7 8 -5 9 8 5 20 -7 22 5 6 35 -6 12 -7 18 -1 14 13 -8 72 4 72 15 0 4
-15 9 -32 11 -22 2 -34 9 -36 21 -3 14 4 17 32 17 20 0 36 5 36 10 0 6 -15 10
-34 10 -25 0 -35 5 -39 20 -4 17 0 20 34 20 21 0 39 5 39 10 0 6 -18 10 -40
10 -35 0 -42 4 -52 28 -23 59 -62 128 -82 150 -31 32 -142 50 -183 29 -43 -23
-79 -66 -109 -131 -23 -50 -27 -75 -28 -147 -1 -48 -5 -91 -10 -96 -5 -5 -6
-2 -1 6 5 9 4 12 -3 7 -18 -11 -2 -37 19 -31 13 4 19 1 19 -9 0 -9 4 -16 9
-16 5 0 8 -8 6 -17 -2 -10 -4 -18 -5 -18 -1 0 -3 -15 -5 -33 -2 -22 -14 -42
-39 -65 -20 -19 -36 -36 -36 -40 0 -12 -40 -48 -63 -57 -17 -7 -18 -9 -4 -9
18 -1 23 -16 8 -25 -5 -3 -23 22 -41 55 -42 80 -62 88 -142 61 -34 -12 -64
-19 -67 -17 -2 3 12 37 33 76 30 59 37 83 38 133 2 108 -26 181 -77 204 -33
15 -117 15 -149 0 -27 -12 -46 -58 -46 -112 0 -28 -1 -28 -13 -11 -13 17 -15
17 -36 -4 -13 -13 -20 -29 -17 -36 7 -20 -16 -35 -46 -30 -15 3 -30 1 -33 -5
-4 -6 -11 -7 -17 -4 -7 4 -6 9 2 14 6 4 -10 10 -36 14 -34 4 -50 2 -56 -6 -6
-10 -8 -10 -8 0 0 18 -18 15 -24 -5 -9 -32 3 71 14 117 6 25 14 75 17 111 4
59 3 69 -16 88 -11 11 -33 23 -48 27 -16 3 -43 13 -62 21 -33 15 -36 14 -95
-15 -87 -43 -97 -57 -108 -155 -9 -77 -8 -88 12 -131 20 -44 20 -49 6 -71 -10
-14 -30 -27 -51 -31 -25 -4 -35 -12 -35 -24 0 -17 -40 -37 -126 -64 -36 -11
-49 -60 -47 -176 2 -96 5 -113 39 -195 39 -96 57 -216 42 -285 -4 -19 -19 -84
-34 -145 -14 -60 -32 -173 -40 -249 -16 -152 -15 -160 37 -149 26 5 28 2 34
-33 3 -22 11 -70 18 -109 8 -49 10 -126 5 -260 -10 -276 -9 -490 3 -544 6 -26
7 -77 4 -117 -6 -55 -4 -78 9 -102 9 -17 16 -55 16 -84 0 -60 -18 -83 -77
-100 -47 -13 -31 -30 26 -27 28 2 45 -2 44 -8 -1 -6 12 -14 30 -18 l32 -8 -30
-4 c-79 -9 -103 -29 -43 -35 43 -4 45 -20 6 -43 -28 -16 -53 -19 -173 -20
-112 -1 -146 -4 -170 -18 -16 -9 -36 -17 -43 -17 -24 0 -112 -50 -112 -64 0
-7 -10 -18 -23 -24 -21 -10 -21 -11 8 -11 114 0 293 17 315 31 17 11 52 16
110 17 47 1 103 5 125 11 34 8 28 9 -35 5 -85 -5 -69 8 23 19 32 4 74 17 93
28 29 17 39 18 63 8 21 -8 39 -9 67 -1 47 13 54 13 54 3 0 -5 -17 -15 -37 -23
-86 -33 -109 -58 -51 -57 29 1 107 37 83 39 -5 0 6 6 25 13 25 9 39 9 49 2 8
-6 30 -16 49 -21 62 -18 51 -35 -22 -35 -35 0 -77 -5 -93 -11 l-28 -12 35 -8
c26 -6 67 0 159 22 96 23 126 27 132 17 4 -7 3 -18 -2 -25 -8 -9 -4 -14 14
-19 15 -3 24 -11 21 -19 -7 -17 38 -27 82 -19 44 8 54 24 15 24 -31 0 -52 17
-29 24 7 3 36 7 65 10 49 6 51 6 46 -15 -6 -22 -5 -22 86 -15 64 5 91 4 86 -4
-3 -5 -13 -10 -21 -10 -8 0 -14 -5 -14 -11 0 -7 17 -9 51 -4 58 8 61 -7 6 -23
-52 -16 -261 -22 -350 -10 -114 15 -201 13 -239 -6 -39 -20 -128 -12 -128 11
0 8 -6 13 -13 12 -6 -1 -40 -1 -74 0 -69 1 -84 15 -28 25 19 4 35 11 35 15 0
4 10 13 23 19 29 14 -254 15 -363 1 -41 -5 -140 -13 -220 -18 -150 -8 -331
-43 -420 -80 -25 -11 -79 -24 -120 -30 -42 -5 -92 -17 -112 -26 -21 -8 -46
-15 -57 -15 -11 0 -32 -5 -46 -12 l-26 -11 3 -136 3 -136 85 1 c47 1 127 6
178 11 90 8 114 6 114 -13 0 -5 4 -8 10 -6 5 1 36 4 69 6 l59 3 -28 -24 c-45
-40 -51 -43 -66 -43 -8 0 -18 -5 -21 -10 -4 -6 -11 -8 -16 -5 -5 4 -16 2 -25
-3 -15 -8 -14 -11 7 -25 15 -11 27 -13 34 -7 15 12 25 3 18 -16 -3 -8 0 -14 6
-14 6 0 11 4 11 10 0 5 7 7 15 4 11 -5 13 -2 9 10 -3 9 -1 16 5 16 6 0 11 -4
11 -10 0 -7 167 -10 480 -10 313 0 480 3 480 10 0 12 77 14 82 1 4 -11 97 -21
104 -10 3 5 13 9 22 9 15 -1 15 -2 -2 -15 -22 -17 -15 -20 12 -6 9 5 32 16 49
23 38 15 44 29 10 21 -12 -4 -18 -2 -14 3 5 5 29 10 55 11 26 0 70 4 97 7 28
4 72 8 98 11 27 2 63 8 80 14 18 5 59 15 92 21 55 11 143 45 155 60 3 3 31 12
63 20 55 13 87 33 70 43 -5 3 -44 1 -88 -4 -44 -5 -127 -8 -185 -7 -96 3 -105
5 -103 22 1 11 -8 27 -20 37 -14 12 -17 18 -8 19 10 0 11 3 2 14 -8 10 -9 16
-1 21 5 3 10 19 10 35 0 18 8 34 22 44 29 21 36 20 76 -4 l33 -21 -23 -19
c-14 -12 -18 -19 -9 -20 11 0 11 -3 0 -16 -11 -13 -10 -17 4 -25 9 -5 14 -16
11 -24 -4 -8 -1 -15 6 -15 7 0 10 -6 7 -13 -7 -17 69 -23 89 -6 11 9 14 9 14
0 0 -8 8 -10 22 -5 20 6 46 9 121 13 10 1 16 4 13 9 -2 4 14 8 37 8 119 0 349
40 410 70 16 8 39 14 52 14 13 0 27 5 30 10 4 6 -7 10 -25 10 -17 0 -45 7 -61
16 -21 10 -49 14 -85 12 -42 -3 -54 -1 -52 9 2 10 26 15 81 19 64 3 87 0 125
-16 39 -18 66 -21 167 -20 137 2 189 -6 181 -26 -3 -9 4 -16 19 -19 14 -3 37
-7 51 -10 19 -4 24 -10 19 -24 -3 -11 -1 -22 5 -26 6 -3 8 -10 5 -15 -6 -9 33
-25 52 -22 6 2 14 -2 18 -8 3 -6 0 -7 -9 -4 -9 3 -16 2 -17 -2 0 -5 -2 -20 -3
-34 -4 -34 7 -39 61 -29 52 10 62 6 44 -15 -21 -25 30 -31 90 -11 l52 18 -23
17 c-29 22 -35 50 -10 43 12 -3 29 5 45 21 14 14 32 26 40 26 8 0 58 11 111
25 53 14 107 25 120 25 13 0 43 6 66 14 52 17 187 25 188 11 1 -5 12 -16 26
-23 30 -16 31 -30 2 -43 -17 -7 -3 -8 51 -5 69 5 73 4 68 -14 -3 -11 -2 -20 1
-20 4 0 13 -4 21 -9 12 -8 12 -12 -2 -25 -8 -9 -22 -16 -31 -16 -8 0 -18 -6
-22 -12 -4 -7 -4 -10 0 -6 5 4 13 3 20 -3 49 -40 60 -50 50 -45 -7 3 -17 0
-23 -8 -10 -12 -18 -11 -53 6 -29 14 -56 19 -93 16 -29 -1 -51 0 -48 5 2 4 -5
7 -17 7 -20 0 -20 -1 -3 -19 10 -10 41 -29 70 -41 33 -14 50 -27 47 -35 -5
-13 11 -21 57 -30 12 -3 27 -9 33 -15 5 -5 15 -10 21 -10 5 0 3 5 -5 10 -28
18 9 11 50 -10 51 -26 66 -25 20 1 l-35 20 35 -6 c26 -4 30 -3 15 4 -11 5 -15
10 -10 10 6 1 3 6 -5 11 -9 6 -10 10 -3 10 6 0 15 -4 18 -10 3 -5 29 -10 56
-10 28 0 60 -5 71 -11 16 -9 19 -8 13 1 -6 10 -1 11 21 6 24 -5 26 -4 10 5
-10 6 -47 15 -83 19 -70 9 -110 30 -57 30 25 0 30 4 30 23 -1 25 -21 42 -38
31 -7 -4 -8 -3 -4 4 4 7 1 12 -7 12 -8 0 -20 6 -27 14 -6 8 -21 17 -33 19 -19
3 -17 6 15 20 39 18 113 23 104 8 -7 -11 22 -23 36 -15 6 4 17 -1 24 -11 11
-14 21 -16 56 -11 24 4 62 10 85 13 24 3 41 9 38 13 -2 4 7 5 21 2 17 -3 30 2
39 14 18 24 19 38 3 28 -10 -6 -10 -4 0 8 11 14 8 18 -25 29 -21 7 -41 12 -45
11 -5 -1 -8 4 -8 11 0 12 89 47 120 47 10 0 10 -3 0 -15 -7 -8 -21 -15 -31
-15 -11 0 -19 -4 -19 -10 0 -25 133 -3 156 26 6 8 19 12 28 8 9 -3 22 -2 29 4
6 5 41 13 77 16 36 4 90 14 122 23 55 15 95 12 84 -6 -14 -22 76 -27 98 -5 26
26 19 37 -19 31 -42 -7 -58 10 -18 19 15 3 47 13 69 21 34 12 42 19 40 39 0
13 -7 24 -14 24 -7 0 -11 4 -7 9 3 5 -4 12 -15 16 -41 13 -10 33 61 40 14 1
34 7 44 12 14 8 7 12 -37 17 -29 4 -61 4 -70 1 -9 -4 -19 -2 -22 3 -3 5 20 17
52 26 71 20 76 20 68 1 -6 -18 20 -20 60 -5 33 13 44 5 18 -15 -18 -14 -18
-14 4 -15 21 0 23 -3 17 -30 l-7 -30 54 1 c66 1 132 20 136 39 1 9 -11 21 -28
28 -37 17 -39 32 -5 32 14 0 45 9 67 20 29 14 62 20 106 20 51 0 78 6 129 30
34 16 66 30 70 30 3 0 34 13 68 29 60 29 62 30 80 91 22 72 17 79 -50 74 -24
-1 -57 1 -72 5 l-28 8 30 7 c64 15 165 49 165 55 0 18 77 32 167 30 54 0 115
2 136 6 25 5 37 4 37 -4 0 -6 19 -11 46 -11 37 0 45 -3 40 -15 -3 -8 -2 -14 2
-14 4 1 16 1 27 0 19 -2 19 -2 3 -15 -19 -14 -24 -51 -8 -61 5 -3 7 -12 4 -19
-3 -7 2 -16 10 -19 23 -9 20 -34 -4 -42 -11 -4 -18 -10 -15 -15 7 -11 116 28
131 47 6 7 23 13 36 13 17 0 27 7 31 20 4 15 14 20 36 20 20 0 31 5 31 14 0
16 42 46 65 46 8 0 15 -4 15 -10 0 -20 53 -43 138 -61 106 -21 120 -13 69 39
l-36 37 24 12 c14 6 23 7 19 2 -3 -5 86 -9 215 -9 136 0 222 -4 226 -10 8 -13
112 -13 117 0 3 10 405 16 415 7 3 -3 -8 -12 -24 -21 -21 -11 -23 -15 -10 -16
10 0 28 6 40 12 14 8 65 13 132 13 81 1 268 16 312 25 1 0 4 13 8 30 5 23 12
30 30 30 37 0 49 -24 46 -94 -2 -59 -1 -64 21 -70 44 -11 123 -6 146 10 21 14
22 21 16 75 -6 58 -6 59 18 59 39 0 87 -20 99 -41 5 -11 20 -19 34 -19 13 0
27 -5 30 -10 3 -6 25 -10 49 -10 36 0 45 -4 54 -25 7 -14 12 -33 12 -41 0 -8
9 -32 19 -53 21 -40 29 -165 16 -226 -6 -29 -3 -32 57 -68 56 -34 68 -37 108
-32 25 4 49 11 54 16 19 18 6 120 -25 195 -14 35 -5 82 17 91 25 9 87 -25 80
-44 -4 -10 9 -40 35 -79 31 -49 49 -66 77 -75 21 -7 47 -20 60 -29 12 -10 46
-24 75 -30 28 -7 62 -18 74 -26 12 -8 36 -14 53 -14 18 0 33 -6 36 -15 3 -7
27 -22 52 -31 26 -10 58 -26 71 -36 12 -9 39 -21 60 -24 20 -4 52 -16 72 -26
20 -10 54 -21 75 -24 22 -2 32 -1 24 2 -8 3 -33 14 -55 24 -22 10 -59 24 -82
30 -24 6 -43 15 -43 20 0 5 -20 15 -45 21 -38 10 -79 37 -61 40 23 5 32 3 41
-9 11 -13 164 -61 198 -62 9 0 17 -4 17 -10 0 -5 15 -10 33 -10 17 0 71 -10
120 -22 l87 -23 0 -37 c0 -20 6 -41 13 -45 6 -4 17 -17 23 -28 15 -27 70 -44
152 -47 l67 -3 0 38 0 37 102 0 102 0 34 -34 c29 -28 45 -36 93 -42 36 -4 75
-3 101 5 59 15 138 14 176 -3 49 -21 156 -48 167 -41 6 3 10 1 10 -5 0 -7 16
-11 45 -9 24 2 47 0 51 -4 13 -13 74 -8 72 6 -2 6 5 11 14 11 10 -1 15 2 12 7
-8 13 -79 11 -109 -3 -20 -9 -28 -9 -34 0 -3 6 -27 14 -51 18 -51 8 -68 19
-80 50 -7 18 -20 24 -63 29 -30 4 -69 6 -88 5 -19 -2 -45 -2 -59 -1 -23 1 -24
3 -7 15 22 17 22 21 -5 46 -13 12 -35 20 -55 20 -44 0 -67 40 -52 94 8 28 15
36 33 36 31 0 106 -27 126 -45 9 -8 38 -19 63 -24 40 -7 46 -6 36 5 -6 8 -34
21 -61 29 -51 15 -78 31 -78 45 0 5 25 23 55 40 32 18 52 36 49 44 -3 7 7 18
23 25 27 12 27 13 8 27 -20 15 -20 15 5 34 14 11 35 20 48 20 13 0 30 7 38 15
20 20 94 20 94 1 0 -8 -5 -18 -11 -22 -15 -9 -49 -91 -49 -120 0 -17 8 -27 26
-34 83 -32 145 13 167 120 10 51 17 66 32 68 66 10 69 11 50 32 -10 11 -24 20
-32 20 -7 0 -13 5 -13 10 0 13 137 13 145 0 3 -5 8 -33 11 -62 8 -86 23 -126
51 -133 22 -5 24 -9 18 -45 -6 -35 -4 -40 22 -56 15 -10 45 -33 66 -50 21 -17
58 -37 82 -44 80 -23 100 3 61 82 -34 70 -43 136 -24 174 26 50 -1 225 -42
277 -18 22 -21 43 -24 176 -2 113 -7 156 -18 173 -12 18 -13 28 -3 53 9 22 10
97 5 295 -6 262 -6 265 15 285 47 44 201 295 231 375 24 66 20 256 -8 365 -14
56 -73 142 -110 161 -66 34 -140 55 -155 43 -10 -9 -20 -9 -38 -1 -30 14 -32
35 -6 59 30 29 80 120 91 166 8 34 6 47 -8 67 -9 14 -24 37 -31 52 -8 16 -26
35 -40 45 -34 22 -129 27 -158 7 l-23 -14 0 117 c0 65 0 283 0 485 l0 368 -22
4 c-13 3 -126 8 -253 11 -126 3 -314 10 -417 15 l-188 9 -216 -49 c-119 -28
-218 -50 -220 -50 -2 0 -4 -201 -5 -447 -1 -388 -2 -444 -14 -418 -8 17 -14
42 -15 58 0 22 -5 27 -25 27 -21 0 -25 5 -25 28 0 50 -11 68 -56 91 -24 13
-44 28 -44 33 0 5 11 19 24 31 32 30 48 91 36 141 -11 48 -76 109 -141 131
-45 15 -49 15 -92 -6 -38 -18 -48 -30 -62 -68 -20 -54 -22 -59 -40 -91 -9 -15
-12 -40 -9 -65 4 -29 0 -49 -15 -72 -18 -29 -23 -32 -47 -23 -22 9 -29 7 -46
-15 -17 -22 -67 -55 -83 -55 -3 0 -5 6 -5 14 0 23 -43 51 -132 87 -46 18 -86
37 -90 43 -14 21 -8 49 21 95 52 83 95 262 83 346 -6 41 -13 53 -42 73 -19 12
-43 22 -55 20 -11 -1 -30 3 -42 10 -34 19 -62 15 -134 -20 -85 -41 -105 -70
-119 -174 -11 -83 -10 -90 21 -161 11 -23 16 -49 13 -57 -12 -32 -106 -95
-182 -122 -42 -15 -84 -33 -93 -41 -42 -35 -48 -268 -9 -358 92 -212 95 -305
21 -590 -6 -22 -18 -98 -26 -170 -9 -71 -20 -155 -24 -185 -5 -30 -7 -57 -5
-59 1 -2 24 -6 49 -8 25 -3 48 -10 51 -15 4 -5 7 -33 9 -62 2 -29 8 -79 15
-111 8 -38 10 -90 5 -150 l-7 -91 -27 4 c-19 2 -30 -1 -34 -11 -8 -22 18 -40
48 -35 21 4 25 1 25 -18 0 -22 -4 -24 -54 -24 -30 0 -58 5 -61 10 -3 6 1 10
10 10 27 0 11 25 -18 28 -38 5 -107 -17 -107 -33 0 -22 20 -28 46 -15 20 11
27 11 42 -3 10 -9 44 -19 75 -23 53 -6 57 -9 57 -33 0 -25 -3 -26 -55 -28 -29
-2 -57 2 -60 7 -8 13 -115 13 -115 1 0 -6 5 -13 10 -16 16 -10 12 -43 -7 -54
-16 -9 -16 -12 -3 -21 8 -5 38 -17 67 -27 48 -15 53 -15 78 1 14 9 23 20 21
25 -6 9 53 55 61 47 3 -3 1 -12 -5 -19 -7 -8 -9 -33 -6 -63 6 -45 4 -51 -19
-63 -21 -11 -113 -11 -192 0 -5 1 -18 -2 -27 -6 -16 -6 -18 -1 -18 43 0 28 -5
63 -10 78 -15 40 -34 200 -31 275 1 36 -3 86 -8 110 -8 35 -6 54 11 104 18 51
21 85 21 235 0 96 -2 189 -5 205 -6 29 23 94 44 103 20 9 48 84 48 129 0 27 6
57 14 68 11 17 26 60 27 80 0 2 6 20 14 39 43 102 -17 542 -82 602 -28 26 -79
42 -167 50 -73 7 -148 41 -170 77 -9 14 -7 21 13 36 20 15 23 24 18 62 -20
160 -40 192 -140 223 -13 4 -16 12 -11 33 3 16 2 23 -3 16 -4 -6 -7 88 -5 209
2 151 0 218 -8 213 -11 -7 -10 36 1 45 4 3 9 173 11 378 2 204 1 366 -4 360
-6 -10 -8 -10 -8 -1 0 6 4 15 10 18 5 3 9 52 9 108 -1 148 10 834 17 1024 l5
162 -25 7 c-15 3 -42 3 -62 -1 -20 -3 -34 -3 -31 2 3 4 -16 9 -42 10 -35 2
-42 0 -31 -8 12 -9 11 -9 -5 -4 -27 10 -88 21 -156 29 -43 6 -58 4 -68 -8z
m49 -31 c0 -5 -5 -3 -10 5 -5 8 -10 20 -10 25 0 6 5 3 10 -5 5 -8 10 -19 10
-25z m105 15 c14 -7 8 -8 -20 -3 -22 3 -42 7 -44 9 -9 8 45 2 64 -6z m-1300
-10 c-3 -5 -12 -10 -18 -10 -7 0 -6 4 3 10 19 12 23 12 15 0z m1212 -22 c-3
-8 -6 -5 -6 6 -1 11 2 17 5 13 3 -3 4 -12 1 -19z m63 12 c0 -5 -2 -10 -4 -10
-3 0 -8 5 -11 10 -3 6 -1 10 4 10 6 0 11 -4 11 -10z m-1314 -26 c-4 -9 -9 -15
-11 -12 -3 3 -3 13 1 22 4 9 9 15 11 12 3 -3 3 -13 -1 -22z m37 1 c-3 -9 -8
-14 -10 -11 -3 3 -2 9 2 15 9 16 15 13 8 -4z m1342 -16 c5 -6 3 -9 -7 -9 -9 0
-20 5 -23 11 -4 6 -14 8 -22 5 -8 -3 -11 -1 -8 5 7 10 43 3 60 -12z m30 11 c3
-6 -1 -7 -9 -4 -18 7 -21 14 -7 14 6 0 13 -4 16 -10z m-141 -25 c-4 -8 -8 -15
-10 -15 -2 0 -4 7 -4 15 0 8 4 15 10 15 5 0 7 -7 4 -15z m-1007 -1 c-3 -3 -12
-4 -19 -1 -8 3 -5 6 6 6 11 1 17 -2 13 -5z m1167 -18 c65 -8 123 -14 130 -13
6 1 12 -12 14 -30 l3 -31 -43 5 c-24 2 -67 9 -97 14 -30 5 -76 9 -102 9 -41 0
-47 3 -51 23 -6 30 0 47 15 42 7 -2 65 -11 131 -19z m-1177 -2 c-3 -3 -12 -4
-19 -1 -8 3 -5 6 6 6 11 1 17 -2 13 -5z m73 -4 c0 -5 -4 -10 -10 -10 -5 0 -10
5 -10 10 0 6 5 10 10 10 6 0 10 -4 10 -10z m-383 -122 c-2 -24 -4 -5 -4 42 0
47 2 66 4 43 2 -24 2 -62 0 -85z m268 112 c-3 -5 -14 -10 -23 -9 -14 0 -13 2
3 9 27 11 27 11 20 0z m252 -112 c-2 -24 -4 -5 -4 42 0 47 2 66 4 43 2 -24 2
-62 0 -85z m-197 79 c8 -2 32 -7 53 -12 20 -4 37 -12 38 -19 0 -6 2 -21 3 -33
3 -26 0 -27 -80 -12 -109 21 -134 29 -134 44 0 7 -3 21 -7 31 -6 16 -1 17 53
11 32 -4 66 -9 74 -10z m63 6 c-7 -2 -19 -2 -25 0 -7 3 -2 5 12 5 14 0 19 -2
13 -5z m810 -13 c-3 -11 -9 -20 -15 -20 -5 0 -4 9 2 20 6 11 12 20 14 20 2 0
2 -9 -1 -20z m282 -10 c13 -6 15 -9 5 -9 -8 0 -22 4 -30 9 -18 12 -2 12 25 0z
m-168 -22 c-3 -8 -6 -5 -6 6 -1 11 2 17 5 13 3 -3 4 -12 1 -19z m123 -13 c182
-17 200 -21 200 -55 0 -27 0 -27 -47 -19 -95 16 -213 25 -213 16 0 -5 -6 -4
-14 2 -11 9 -15 9 -19 -1 -3 -7 -3 2 0 20 3 20 1 32 -6 32 -6 0 -11 -9 -11
-20 0 -11 -4 -20 -9 -20 -13 0 0 41 15 47 7 2 10 12 7 21 -5 16 -5 16 8 1 10
-12 38 -19 89 -24z m-1189 -46 c32 -10 37 -16 35 -38 -1 -21 -6 -25 -26 -22
-14 1 -36 14 -49 27 -16 16 -19 22 -8 18 9 -3 17 -2 17 4 0 6 -6 13 -12 15
-25 10 5 7 43 -4z m92 -24 c-3 -9 -8 -14 -10 -11 -3 3 -2 9 2 15 9 16 15 13 8
-4z m157 -5 c-8 -5 -22 -9 -30 -9 -10 0 -8 3 5 9 27 12 43 12 25 0z m-10 -55
c0 -18 -7 -24 -30 -27 -25 -4 -31 -1 -36 19 -11 40 1 54 36 42 22 -8 30 -17
30 -34z m-263 9 c-3 -3 -12 -4 -19 -1 -8 3 -5 6 6 6 11 1 17 -2 13 -5z m33
-14 c0 -5 -4 -10 -10 -10 -5 0 -10 5 -10 10 0 6 5 10 10 10 6 0 10 -4 10 -10z
m1367 4 c-3 -3 -12 -4 -19 -1 -8 3 -5 6 6 6 11 1 17 -2 13 -5z m-1610 -81 c-3
-10 -5 -2 -5 17 0 19 2 27 5 18 2 -10 2 -26 0 -35z m470 31 c-3 -3 -12 -4 -19
-1 -8 3 -5 6 6 6 11 1 17 -2 13 -5z m909 -53 c-3 -4 37 -11 89 -15 144 -10
155 -13 155 -47 0 -18 -4 -27 -12 -24 -15 5 -164 18 -225 19 -38 0 -44 4 -53
30 -5 16 -10 30 -10 32 0 1 12 5 28 7 15 2 28 5 30 6 2 0 1 -3 -2 -8z m-56
-61 c8 -5 12 -11 10 -14 -3 -2 -14 2 -24 10 -22 15 -10 19 14 4z m-1323 -47
c-3 -10 -5 -4 -5 12 0 17 2 24 5 18 2 -7 2 -21 0 -30z m218 28 c-15 -6 -6 -11
40 -20 33 -6 76 -16 95 -21 19 -5 58 -12 85 -15 l51 -7 -4 -34 c-3 -26 -8 -34
-21 -30 -19 5 -94 19 -203 37 l-76 13 -4 37 c-2 21 0 35 4 33 5 -3 8 0 8 5 0
6 10 11 23 10 21 0 21 -1 2 -8z m1152 -7 c-3 -3 -12 -4 -19 -1 -8 3 -5 6 6 6
11 1 17 -2 13 -5z m-1390 -161 c-2 -32 -3 -8 -3 52 0 61 1 87 3 58 2 -29 2
-78 0 -110z m510 151 c-3 -3 -12 -4 -19 -1 -8 3 -5 6 6 6 11 1 17 -2 13 -5z
m971 -1 c-10 -2 -26 -2 -35 0 -10 3 -2 5 17 5 19 0 27 -2 18 -5z m-1075 -10
c-7 -2 -19 -2 -25 0 -7 3 -2 5 12 5 14 0 19 -2 13 -5z m1032 -9 c17 -3 68 -9
114 -13 85 -9 101 -17 100 -56 0 -11 -3 -14 -6 -7 -2 6 -9 10 -14 7 -4 -3 -68
-1 -141 6 -95 8 -137 15 -148 26 -8 9 -9 13 -2 9 14 -8 17 10 2 19 -34 21 8
25 95 9z m-1188 -70 c-3 -3 -12 -4 -19 -1 -8 3 -5 6 6 6 11 1 17 -2 13 -5z
m118 -22 c-3 -3 -11 0 -18 7 -9 10 -8 11 6 5 10 -3 15 -9 12 -12z m1122 12
c-3 -3 -12 -4 -19 -1 -8 3 -5 6 6 6 11 1 17 -2 13 -5z m81 -11 c-10 -2 -28 -2
-40 0 -13 2 -5 4 17 4 22 1 32 -1 23 -4z m-1287 -26 c19 -6 14 -57 -5 -57 -28
0 -56 14 -56 26 0 8 -8 14 -17 15 -15 0 -15 2 2 9 11 5 16 9 10 9 -5 1 -4 5 4
10 8 5 21 5 30 1 9 -5 23 -11 32 -13z m1132 16 c-13 -2 -33 -2 -45 0 -13 2 -3
4 22 4 25 0 35 -2 23 -4z m234 -45 c-2 -13 -4 -5 -4 17 -1 22 1 32 4 23 2 -10
2 -28 0 -40z m-1277 32 c0 -5 -4 -10 -10 -10 -5 0 -10 5 -10 10 0 6 5 10 10
10 6 0 10 -4 10 -10z m130 0 c0 -5 -2 -10 -4 -10 -3 0 -8 5 -11 10 -3 6 -1 10
4 10 6 0 11 -4 11 -10z m27 -22 c-3 -8 -6 -5 -6 6 -1 11 2 17 5 13 3 -3 4 -12
1 -19z m-114 5 c-7 -2 -19 -2 -25 0 -7 3 -2 5 12 5 14 0 19 -2 13 -5z m-29
-12 c21 -9 23 -14 17 -38 -4 -15 -9 -28 -12 -27 -2 0 -19 5 -36 12 -24 8 -31
15 -26 27 3 10 0 21 -8 26 -20 12 32 12 65 0z m1031 -1 c3 -5 -1 -10 -9 -10
-9 0 -16 5 -16 10 0 6 4 10 9 10 6 0 13 -4 16 -10z m-925 -32 c2 -47 1 -50
-31 -43 -24 6 -30 4 -24 -5 5 -9 4 -11 -3 -6 -7 4 -12 25 -12 46 l0 39 35 -12
c19 -7 34 -15 35 -19z m985 22 c3 -5 -1 -10 -10 -10 -9 0 -13 5 -10 10 3 6 8
10 10 10 2 0 7 -4 10 -10z m-55 -20 c0 -5 -5 -10 -11 -10 -5 0 -7 5 -4 10 3 6
8 10 11 10 2 0 4 -4 4 -10z m127 4 c-3 -3 -12 -4 -19 -1 -8 3 -5 6 6 6 11 1
17 -2 13 -5z m-1329 -11 c-10 -2 -18 -9 -18 -15 0 -6 -3 -9 -6 -5 -10 10 6 27
24 26 15 -1 15 -2 0 -6z m1280 0 c19 -5 23 -11 20 -34 -4 -22 0 -28 19 -32 20
-4 23 0 23 24 0 24 4 29 23 29 35 0 58 -21 51 -47 -5 -18 -11 -21 -38 -17 -23
3 -26 2 -12 -4 19 -8 19 -9 -2 -14 -14 -4 -20 -2 -15 5 4 7 0 8 -11 4 -10 -4
-15 -3 -11 3 3 6 -2 10 -12 10 -11 0 -23 4 -28 9 -6 5 -21 11 -35 13 -19 2
-26 10 -28 31 -4 29 8 33 56 20z m-1238 -13 c0 -5 -2 -10 -4 -10 -3 0 -8 5
-11 10 -3 6 -1 10 4 10 6 0 11 -4 11 -10z m1147 -32 c-3 -7 -5 -2 -5 12 0 14
2 19 5 13 2 -7 2 -19 0 -25z m-997 -2 c0 -2 -7 -7 -16 -10 -8 -3 -12 -2 -9 4
6 10 25 14 25 6z m-118 -22 c4 -3 5 -12 2 -22 -3 -9 -8 -22 -10 -29 -2 -9 -11
-10 -34 -2 -24 9 -30 17 -30 41 0 28 2 29 33 23 17 -4 35 -9 39 -11z m128 -14
c0 -5 -4 -10 -10 -10 -5 0 -10 5 -10 10 0 6 5 10 10 10 6 0 10 -4 10 -10z
m962 -5 c35 -14 37 -19 29 -69 0 -5 -7 -4 -13 2 -7 5 -24 12 -38 14 -14 1 -25
10 -26 18 -2 31 -6 34 -14 15 -7 -16 -9 -17 -9 -3 -1 13 19 34 35 38 1 0 17
-7 36 -15z m96 -11 c7 4 12 2 12 -3 0 -6 8 -11 18 -11 27 0 23 -48 -6 -53 -12
-2 -25 0 -28 5 -4 6 -10 5 -15 -3 -10 -16 -24 34 -15 56 3 8 1 15 -5 15 -6 0
-7 5 -4 11 5 6 11 4 19 -7 7 -9 18 -14 24 -10z m-1471 -56 c-2 -13 -4 -3 -4
22 0 25 2 35 4 23 2 -13 2 -33 0 -45z m483 10 c0 -25 -3 -28 -30 -26 -23 2
-32 8 -36 25 -11 41 1 53 35 40 24 -9 31 -17 31 -39z m1135 10 c1 -2 5 -19 8
-38 3 -19 3 -29 0 -22 -2 6 -13 12 -23 12 -32 0 -50 11 -50 32 0 13 -4 17 -12
12 -10 -6 -10 -4 0 8 10 13 20 14 44 7 17 -4 32 -10 33 -11z m-1395 2 c13 -8
13 -10 -2 -10 -9 0 -20 5 -23 10 -8 13 5 13 25 0z m1137 -26 c-3 -3 -12 -4
-19 -1 -8 3 -5 6 6 6 11 1 17 -2 13 -5z m-997 -18 c0 -3 -4 -8 -10 -11 -5 -3
-10 -1 -10 4 0 6 5 11 10 11 6 0 10 -2 10 -4z m1195 -24 c-3 -3 -11 0 -18 7
-9 10 -8 11 6 5 10 -3 15 -9 12 -12z m-1138 2 c-3 -3 -12 -4 -19 -1 -8 3 -5 6
6 6 11 1 17 -2 13 -5z m-166 -18 c20 -3 43 -8 52 -12 10 -3 23 -1 31 5 10 9
15 8 19 -3 5 -12 77 -29 129 -31 9 0 20 -4 25 -9 4 -5 3 -6 -4 -2 -9 5 -13 -2
-13 -24 0 -29 -2 -30 -39 -28 -21 2 -37 6 -35 9 2 4 -25 9 -59 12 -34 3 -86
10 -114 17 -48 11 -53 14 -53 39 0 28 8 43 19 37 3 -2 22 -7 42 -10z m62 7
c-7 -2 -19 -2 -25 0 -7 3 -2 5 12 5 14 0 19 -2 13 -5z m1217 -2 c0 -5 -9 -7
-20 -4 -11 3 -20 7 -20 9 0 2 9 4 20 4 11 0 20 -4 20 -9z m-31 -17 c7 -2 10
-11 7 -19 -3 -8 -1 -15 4 -15 5 0 11 8 13 18 4 13 5 12 6 -5 1 -16 -6 -23 -26
-27 -55 -11 -82 3 -76 39 5 25 16 26 72 9z m74 -1 c-7 -2 -19 -2 -25 0 -7 3
-2 5 12 5 14 0 19 -2 13 -5z m-163 -50 c0 -20 -16 -8 -23 17 -4 17 -3 19 9 9
8 -6 14 -18 14 -26z m163 30 c-7 -2 -19 -2 -25 0 -7 3 -2 5 12 5 14 0 19 -2
13 -5z m-436 -65 c-3 -7 -5 -2 -5 12 0 14 2 19 5 13 2 -7 2 -19 0 -25z m398
22 c3 -5 1 -10 -4 -10 -6 0 -11 5 -11 10 0 6 2 10 4 10 3 0 8 -4 11 -10z
m-1252 -17 c-7 -2 -19 -2 -25 0 -7 3 -2 5 12 5 14 0 19 -2 13 -5z m-84 -63 c1
-13 0 -13 -9 0 -5 8 -9 26 -9 40 l1 25 8 -25 c4 -14 8 -32 9 -40z m151 50 c-8
-5 -22 -9 -30 -9 -10 0 -8 3 5 9 27 12 43 12 25 0z m1035 -11 c22 -7 34 -14
28 -16 -7 -3 -13 -13 -13 -24 0 -16 -6 -19 -35 -17 -26 1 -35 7 -35 20 0 10
-6 18 -12 19 -10 0 -10 2 0 6 6 2 10 9 6 14 -7 12 12 11 61 -2z m-1010 -9
c-11 -5 -29 -8 -40 -8 -16 0 -15 2 5 8 34 11 60 11 35 0z m65 6 c0 -2 -7 -6
-15 -10 -8 -3 -15 -1 -15 4 0 6 7 10 15 10 8 0 15 -2 15 -4z m-162 -44 c3 -33
-3 -37 -44 -26 -15 4 -23 16 -26 35 -5 29 -3 30 31 27 32 -3 36 -7 39 -36z
m1223 17 c19 -30 10 -39 -41 -39 -41 0 -50 3 -50 18 0 14 2 15 10 2 8 -12 10
-9 10 12 0 25 3 27 31 24 17 -2 35 -10 40 -17z m26 -11 c-3 -7 -5 -2 -5 12 0
14 2 19 5 13 2 -7 2 -19 0 -25z m70 26 c-3 -3 -12 -4 -19 -1 -8 3 -5 6 6 6 11
1 17 -2 13 -5z m19 -41 c7 -25 -3 -46 -17 -37 -6 3 -17 -2 -25 -12 -12 -17
-13 -17 -8 -1 3 9 1 17 -5 17 -6 0 -11 -6 -11 -12 0 -9 -3 -8 -10 2 -5 9 -5
19 0 26 6 6 7 14 4 17 -13 12 8 26 37 24 21 -1 31 -8 35 -24z m-1237 7 c13 -6
17 -17 14 -35 -3 -15 -1 -25 6 -25 6 0 11 9 11 20 0 23 41 44 51 27 4 -5 15
-7 24 -3 15 5 16 4 5 -9 -7 -8 -10 -22 -6 -30 8 -21 -19 -30 -50 -17 -17 9
-24 9 -24 1 0 -8 -4 -8 -12 -1 -7 5 -27 13 -44 16 -26 6 -33 13 -36 37 -4 25
-1 29 19 29 14 0 32 -4 42 -10z m294 -17 c-7 -2 -19 -2 -25 0 -7 3 -2 5 12 5
14 0 19 -2 13 -5z m734 -49 c-4 -28 -4 -28 -6 4 -1 22 -5 31 -13 26 -7 -5 -8
-3 -3 5 12 20 27 -3 22 -35z m-1410 -26 c-2 -13 -4 -3 -4 22 0 25 2 35 4 23 2
-13 2 -33 0 -45z m1443 32 c0 -5 11 -10 24 -10 26 0 43 -16 42 -40 -1 -23 -69
-26 -87 -4 -12 15 -12 16 0 9 11 -6 13 -1 9 24 -2 17 -1 31 4 31 4 0 8 -4 8
-10z m-513 -6 c-3 -3 -12 -4 -19 -1 -8 3 -5 6 6 6 11 1 17 -2 13 -5z m600 -31
c-3 -10 -5 -4 -5 12 0 17 2 24 5 18 2 -7 2 -21 0 -30z m-1232 17 c3 -6 -1 -7
-9 -4 -18 7 -21 14 -7 14 6 0 13 -4 16 -10z m72 -22 c-3 -8 -6 -5 -6 6 -1 11
2 17 5 13 3 -3 4 -12 1 -19z m770 16 c-3 -3 -12 -4 -19 -1 -8 3 -5 6 6 6 11 1
17 -2 13 -5z m-868 -14 c24 -12 16 -60 -9 -60 -36 0 -50 12 -50 41 0 23 5 29
21 29 11 0 28 -4 38 -10z m138 -12 c-3 -8 -6 -5 -6 6 -1 11 2 17 5 13 3 -3 4
-12 1 -19z m498 12 c-3 -5 -12 -10 -18 -10 -7 0 -6 4 3 10 19 12 23 12 15 0z
m82 4 c-3 -3 -12 -4 -19 -1 -8 3 -5 6 6 6 11 1 17 -2 13 -5z m621 -3 c14 -8
13 -58 0 -53 -5 1 -19 2 -33 2 -27 0 -41 20 -31 45 6 16 43 20 64 6z m-1238
-21 c13 0 19 -9 22 -33 3 -30 1 -33 -22 -32 -35 2 -47 10 -52 40 -5 25 23 56
30 34 2 -5 12 -9 22 -9z m667 14 c-3 -3 -12 -4 -19 -1 -8 3 -5 6 6 6 11 1 17
-2 13 -5z m-361 -34 c20 -8 24 -16 24 -53 0 -54 -5 -60 -40 -42 -22 12 -29 23
-32 57 -4 39 12 81 21 56 2 -5 14 -13 27 -18z m44 -7 c-11 -17 -11 -17 -6 0 3
10 6 24 7 30 0 9 2 9 5 0 3 -7 0 -20 -6 -30z m70 27 c8 -5 11 -10 5 -10 -5 0
-17 5 -25 10 -8 5 -10 10 -5 10 6 0 17 -5 25 -10z m-309 -50 c8 -37 -6 -51
-36 -36 -47 21 -44 69 3 64 19 -2 29 -10 33 -28z m646 -7 c-3 -10 -5 -4 -5 12
0 17 2 24 5 18 2 -7 2 -21 0 -30z m343 27 c0 -5 -4 -10 -10 -10 -5 0 -10 5
-10 10 0 6 5 10 10 10 6 0 10 -4 10 -10z m-854 -88 c-5 -5 -26 59 -25 77 0 9
7 -4 14 -29 8 -24 13 -46 11 -48z m894 84 c0 -3 -4 -8 -10 -11 -5 -3 -10 -1
-10 4 0 6 5 11 10 11 6 0 10 -2 10 -4z m-1295 -16 c3 -5 1 -10 -4 -10 -6 0
-11 5 -11 10 0 6 2 10 4 10 3 0 8 -4 11 -10z m566 -7 c17 -10 27 -23 24 -31
-3 -8 -5 -27 -5 -44 0 -27 -3 -30 -22 -23 -13 3 -28 7 -33 7 -18 2 -36 26 -25
33 6 3 10 22 10 41 0 38 9 42 51 17z m649 7 c0 -5 -4 -10 -10 -10 -5 0 -10 5
-10 10 0 6 5 10 10 10 6 0 10 -4 10 -10z m117 -5 c0 -8 -4 -12 -9 -9 -4 3 -8
9 -8 15 0 5 4 9 8 9 5 0 9 -7 9 -15z m-1260 -11 c-3 -3 -12 -4 -19 -1 -8 3 -5
6 6 6 11 1 17 -2 13 -5z m430 -16 c-3 -8 -6 -5 -6 6 -1 11 2 17 5 13 3 -3 4
-12 1 -19z m180 -13 c10 -32 11 -69 1 -81 -14 -18 -81 18 -83 44 -1 12 2 19 7
16 4 -3 8 6 8 21 0 22 4 25 30 23 20 -2 32 -9 37 -23z m77 10 c3 -8 1 -15 -4
-15 -6 0 -10 7 -10 15 0 8 2 15 4 15 2 0 6 -7 10 -15z m71 5 c3 -5 1 -18 -4
-27 -9 -16 -10 -16 -11 4 0 12 -6 24 -12 26 -8 3 -7 6 4 6 9 1 20 -3 23 -9z
m-800 -10 c-3 -5 -14 -10 -23 -9 -14 0 -13 2 3 9 27 11 27 11 20 0z m342 -32
c-3 -7 -5 -2 -5 12 0 14 2 19 5 13 2 -7 2 -19 0 -25z m423 22 c0 -5 -2 -10 -4
-10 -3 0 -8 5 -11 10 -3 6 -1 10 4 10 6 0 11 -4 11 -10z m-810 -10 c0 -5 -5
-10 -11 -10 -5 0 -7 5 -4 10 3 6 8 10 11 10 2 0 4 -4 4 -10z m82 -51 c-4 -25
-7 -28 -31 -23 -36 9 -43 18 -39 45 2 16 9 23 21 21 9 -2 17 2 17 7 0 6 8 4
18 -5 13 -10 17 -25 14 -45z m697 47 c14 -8 26 -20 27 -27 2 -8 6 -25 9 -39 3
-14 2 -19 -1 -11 -5 11 -9 9 -18 -7 -10 -19 -14 -19 -42 -7 -29 12 -31 16 -28
57 1 23 3 44 3 46 2 6 28 0 50 -12z m78 -28 c-3 -8 -6 -5 -6 6 -1 11 2 17 5
13 3 -3 4 -12 1 -19z m-862 3 c3 -5 2 -12 -3 -15 -5 -3 -9 1 -9 9 0 17 3 19
12 6z m839 -7 c3 -8 2 -12 -4 -9 -6 3 -10 10 -10 16 0 14 7 11 14 -7z m-647
-20 c3 -8 2 -25 -1 -38 -6 -23 -7 -24 -35 -10 -30 15 -45 46 -29 62 12 12 58
3 65 -14z m94 -20 c-2 -37 0 -45 10 -39 11 6 11 5 2 -5 -9 -10 -19 -10 -48 0
-31 10 -36 16 -33 38 3 23 7 27 31 24 19 -2 27 2 27 13 0 8 3 15 8 15 4 0 5
-21 3 -46z m-496 -71 c-9 -15 -13 -19 -9 -8 4 11 10 43 13 70 l6 50 3 -42 c2
-26 -3 -53 -13 -70z m1132 75 c-3 -7 -5 -2 -5 12 0 14 2 19 5 13 2 -7 2 -19 0
-25z m20 10 c-3 -8 -6 -5 -6 6 -1 11 2 17 5 13 3 -3 4 -12 1 -19z m-477 -18
c0 -5 -5 -10 -11 -10 -5 0 -7 5 -4 10 3 6 8 10 11 10 2 0 4 -4 4 -10z m381
-23 c-8 -8 -11 -7 -11 4 0 9 3 19 7 23 4 4 9 2 11 -4 3 -7 -1 -17 -7 -23z
m-776 3 c3 -6 -1 -7 -9 -4 -18 7 -21 14 -7 14 6 0 13 -4 16 -10z m499 -6 c3
-8 2 -12 -4 -9 -6 3 -10 10 -10 16 0 14 7 11 14 -7z m107 -7 c-10 -9 -11 -8
-5 6 3 10 9 15 12 12 3 -3 0 -11 -7 -18z m-667 -9 c-10 -13 -20 -25 -21 -27
-1 -2 -1 6 0 17 0 11 4 19 8 16 4 -2 10 0 14 6 3 5 9 10 12 10 3 0 -2 -10 -13
-22z m603 7 c0 -8 -4 -15 -9 -15 -10 0 -11 14 -1 23 9 10 10 9 10 -8z m123 11
c0 -3 -4 -8 -10 -11 -5 -3 -10 -1 -10 4 0 6 5 11 10 11 6 0 10 -2 10 -4z
m-665 -24 c-3 -3 -11 0 -18 7 -9 10 -8 11 6 5 10 -3 15 -9 12 -12z m423 6 c12
-1 18 -99 6 -110 -3 -4 -19 1 -35 10 -26 15 -29 22 -29 66 0 46 1 48 23 41 12
-3 28 -7 35 -7z m429 -20 c-3 -8 -6 -5 -6 6 -1 11 2 17 5 13 3 -3 4 -12 1 -19z
m20 -10 c-3 -7 -5 -2 -5 12 0 14 2 19 5 13 2 -7 2 -19 0 -25z m361 -12 c3 -23
0 -28 -13 -22 -9 3 -25 6 -36 6 -21 0 -34 22 -26 44 4 10 15 12 39 7 27 -5 34
-12 36 -35z m37 26 c-3 -3 -11 0 -18 7 -9 10 -8 11 6 5 10 -3 15 -9 12 -12z
m-1278 -3 c26 -8 30 -15 28 -40 -3 -40 -10 -45 -41 -28 -28 14 -45 45 -37 67
6 15 12 15 50 1z m66 4 c-7 -2 -19 -2 -25 0 -7 3 -2 5 12 5 14 0 19 -2 13 -5z
m463 -8 c13 -13 13 -15 1 -15 -8 0 -17 7 -21 15 -3 8 -3 15 0 15 3 0 12 -7 20
-15z m51 -1 c-3 -3 -12 -4 -19 -1 -8 3 -5 6 6 6 11 1 17 -2 13 -5z m-822 -28
c0 -15 -4 -21 -9 -16 -5 5 -6 16 -3 24 9 22 12 20 12 -8z m876 7 c13 -15 12
-15 -11 -3 -34 17 -36 20 -18 20 9 0 22 -7 29 -17z m516 -15 c-3 -7 -5 -2 -5
12 0 14 2 19 5 13 2 -7 2 -19 0 -25z m126 13 c-4 -3 -11 -10 -15 -15 -4 -4 -6
1 -5 12 1 12 6 18 15 15 7 -3 10 -9 5 -12z m-758 -3 c23 -10 25 -17 23 -56 -3
-42 -5 -45 -33 -48 -22 -2 -26 -1 -15 6 13 8 12 10 -2 10 -12 0 -18 8 -18 23
0 13 -6 29 -12 36 -11 11 -10 12 1 6 11 -6 13 -3 9 13 -7 25 7 28 47 10z
m-282 -5 c-7 -2 -19 -2 -25 0 -7 3 -2 5 12 5 14 0 19 -2 13 -5z m382 -5 c14
-6 25 -14 26 -17 0 -3 2 -18 4 -32 5 -40 -9 -55 -42 -43 -23 8 -29 16 -31 49
-2 22 -9 43 -15 47 -20 12 29 9 58 -4z m244 -9 c1 8 3 12 6 9 3 -3 2 -13 -1
-22 -5 -14 -9 -15 -15 -4 -5 7 -8 20 -8 28 0 10 3 8 9 -5 5 -12 9 -14 9 -6z
m-786 4 c-7 -2 -21 -2 -30 0 -10 3 -4 5 12 5 17 0 24 -2 18 -5z m128 -3 c12
-7 19 -21 19 -41 0 -29 -2 -31 -27 -24 -30 7 -43 21 -43 46 0 29 18 36 51 19z
m489 -18 c0 -5 11 -14 25 -20 21 -10 25 -18 25 -55 0 -24 -5 -48 -12 -55 -14
-14 -38 -16 -38 -2 0 5 8 7 18 4 9 -3 2 4 -15 16 -18 12 -31 25 -28 29 2 4 5
26 6 49 2 23 7 42 11 42 4 0 8 -4 8 -8z m440 -42 c0 -23 -5 -30 -19 -30 -34 0
-51 12 -51 35 0 13 -6 26 -12 28 -7 3 2 3 21 0 26 -5 32 -3 26 6 -6 10 -3 11
14 2 14 -8 21 -21 21 -41z m120 30 c0 -5 -2 -10 -4 -10 -3 0 -8 5 -11 10 -3 6
-1 10 4 10 6 0 11 -4 11 -10z m107 4 c-3 -3 -12 -4 -19 -1 -8 3 -5 6 6 6 11 1
17 -2 13 -5z m-149 -19 c25 -5 32 -12 32 -30 0 -32 -10 -36 -52 -24 -29 7 -37
15 -40 39 -4 24 -1 29 11 26 9 -3 31 -7 49 -11z m142 -4 c0 -5 -9 -7 -20 -4
-11 3 -20 7 -20 9 0 2 9 4 20 4 11 0 20 -4 20 -9z m-93 -33 c-3 -8 -6 -5 -6 6
-1 11 2 17 5 13 3 -3 4 -12 1 -19z m91 7 c1 -1 4 -12 7 -24 4 -23 -8 -26 -62
-15 -28 5 -29 8 -19 29 9 19 16 23 41 18 16 -3 31 -7 33 -8z m-1767 -46 c-4
-60 -8 -60 -12 0 -3 30 0 50 6 48 5 -2 8 -23 6 -48z m796 45 c-3 -3 -12 -4
-19 -1 -8 3 -5 6 6 6 11 1 17 -2 13 -5z m380 -26 c-3 -8 -6 -5 -6 6 -1 11 2
17 5 13 3 -3 4 -12 1 -19z m-92 -28 c3 -5 1 -10 -4 -10 -6 0 -11 5 -11 10 0 6
2 10 4 10 3 0 8 -4 11 -10z m115 -16 c0 -8 -5 -12 -10 -9 -6 4 -8 11 -5 16 9
14 15 11 15 -7z m573 -4 c-3 -11 -7 -20 -9 -20 -2 0 -4 9 -4 20 0 11 4 20 9
20 5 0 7 -9 4 -20z m-33 0 c0 -5 -7 -7 -15 -4 -8 4 -15 8 -15 10 0 2 7 4 15 4
8 0 15 -4 15 -10z m-902 -49 c18 -9 22 -20 22 -56 0 -48 -4 -51 -44 -35 -22 8
-26 16 -26 49 0 22 -5 42 -12 44 -8 3 -6 6 5 6 9 1 17 7 17 14 0 8 3 9 8 1 4
-6 17 -16 30 -23z m39 -18 c-3 -10 -5 -4 -5 12 0 17 2 24 5 18 2 -7 2 -21 0
-30z m68 7 c3 -5 2 -10 -4 -10 -5 0 -13 5 -16 10 -3 6 -2 10 4 10 5 0 13 -4
16 -10z m19 -36 c11 -8 16 -14 9 -14 -6 0 -10 -12 -10 -26 0 -35 -16 -48 -44
-38 -13 4 -28 7 -33 6 -5 -2 -6 11 -2 29 3 17 6 40 6 51 0 17 4 19 27 13 14
-3 36 -13 47 -21z m60 0 c4 -9 14 -14 24 -12 15 4 17 -2 15 -45 -2 -27 -5 -52
-8 -56 -12 -11 -59 25 -66 50 -14 54 17 110 35 63z m-1017 -41 c-3 -10 -5 -4
-5 12 0 17 2 24 5 18 2 -7 2 -21 0 -30z m1138 19 c-3 -3 -11 0 -18 7 -9 10 -8
11 6 5 10 -3 15 -9 12 -12z m69 3 c3 -8 1 -15 -4 -15 -6 0 -10 7 -10 15 0 8 2
15 4 15 2 0 6 -7 10 -15z m457 -10 c5 4 9 -8 9 -25 0 -19 4 -29 10 -25 6 4 8
15 5 25 -3 10 0 22 6 26 8 5 10 2 6 -9 -6 -16 11 -27 43 -27 13 0 19 -9 22
-35 3 -24 0 -35 -9 -35 -7 0 -13 5 -13 10 0 6 -12 10 -27 10 -22 0 -25 -2 -13
-10 8 -5 10 -10 4 -10 -6 0 -17 7 -24 15 -10 12 -10 15 1 16 11 0 11 2 1 6
-13 5 -43 68 -41 87 1 6 3 3 6 -7 2 -9 9 -15 14 -12z m-924 -7 c-3 -8 -6 -5
-6 6 -1 11 2 17 5 13 3 -3 4 -12 1 -19z m833 12 c0 -5 -5 -10 -11 -10 -5 0 -7
5 -4 10 3 6 8 10 11 10 2 0 4 -4 4 -10z m183 3 c-7 -2 -19 -2 -25 0 -7 3 -2 5
12 5 14 0 19 -2 13 -5z m-633 -18 c26 -14 30 -21 30 -59 0 -53 -4 -57 -41 -43
-27 11 -29 15 -29 64 0 29 2 53 5 53 4 0 19 -7 35 -15z m349 -2 c1 18 12 21
49 11 18 -5 22 -13 21 -43 0 -20 -3 -30 -6 -23 -2 6 -16 12 -30 12 -27 0 -53
25 -52 50 0 10 3 8 9 -5 7 -17 9 -17 9 -2z m-1079 -3 c0 -5 -4 -10 -10 -10 -5
0 -10 5 -10 10 0 6 5 10 10 10 6 0 10 -4 10 -10z m377 -12 c-3 -8 -6 -5 -6 6
-1 11 2 17 5 13 3 -3 4 -12 1 -19z m875 -12 c8 -38 0 -44 -35 -32 -34 12 -41
20 -34 47 7 25 64 13 69 -15z m-1274 5 c9 -5 29 -13 43 -19 21 -8 26 -15 22
-36 -6 -27 -13 -30 -50 -20 -17 5 -23 14 -23 35 0 16 -4 29 -10 29 -5 0 -10 5
-10 10 0 12 5 13 28 1z m432 -11 c0 -5 -4 -10 -10 -10 -5 0 -10 5 -10 10 0 6
5 10 10 10 6 0 10 -4 10 -10z m406 -27 c-3 -4 -6 -1 -6 6 0 7 -4 9 -10 6 -11
-7 -14 8 -3 19 4 3 11 -1 16 -9 5 -9 6 -19 3 -22z m-692 -3 c14 -5 26 -16 26
-25 0 -8 7 -15 15 -15 9 0 12 6 9 15 -7 16 6 19 44 9 17 -5 22 -14 22 -40 0
-19 -5 -34 -11 -34 -15 0 -53 21 -61 34 -6 8 -11 7 -17 -3 -15 -23 -78 3 -77
32 1 12 6 25 11 29 13 10 9 10 39 -2z m1060 -14 c-7 -19 16 -32 28 -15 8 11 9
10 4 -3 -4 -13 0 -18 14 -18 16 0 20 -7 20 -31 0 -28 -3 -31 -22 -25 -13 3
-28 6 -34 6 -12 0 -27 78 -18 92 8 13 14 9 8 -6z m-504 -10 c0 -9 -30 -14 -35
-6 -4 6 3 10 14 10 12 0 21 -2 21 -4z m117 -28 c-3 -7 -5 -2 -5 12 0 14 2 19
5 13 2 -7 2 -19 0 -25z m-83 3 c4 -5 -3 -7 -14 -4 -23 6 -26 13 -6 13 8 0 17
-4 20 -9z m-654 -5 c0 -2 -9 -6 -20 -9 -11 -3 -18 -1 -14 4 5 9 34 13 34 5z
m1212 -23 c-3 -16 -7 -22 -10 -15 -4 13 4 42 11 42 2 0 2 -12 -1 -27z m-845
-5 c-3 -8 -6 -5 -6 6 -1 11 2 17 5 13 3 -3 4 -12 1 -19z m926 12 c12 0 17 -8
17 -25 0 -24 -3 -26 -43 -23 -41 3 -43 4 -39 31 4 24 8 28 26 23 11 -3 29 -6
39 -6z m-876 -22 c-3 -8 -6 -5 -6 6 -1 11 2 17 5 13 3 -3 4 -12 1 -19z m-522
2 c3 -5 1 -10 -4 -10 -6 0 -11 5 -11 10 0 6 2 10 4 10 3 0 8 -4 11 -10z m81
-22 c14 -10 6 -58 -10 -58 -37 1 -56 14 -56 39 0 15 3 30 6 33 6 7 45 -2 60
-14z m161 16 c-3 -3 -12 -4 -19 -1 -8 3 -5 6 6 6 11 1 17 -2 13 -5z m330 -9
c35 -18 62 -45 44 -45 -6 0 -11 -10 -11 -22 0 -13 -4 -27 -8 -33 -9 -12 -44
-16 -36 -4 3 5 -2 9 -10 9 -13 0 -16 12 -16 55 0 30 2 55 3 55 2 0 18 -7 34
-15z m634 -22 c-9 -16 -10 -14 -11 12 0 21 3 26 11 18 8 -8 8 -16 0 -30z
m-1000 9 c-7 -2 -18 1 -23 6 -8 8 -4 9 13 5 13 -4 18 -8 10 -11z m-33 -7 c19
-10 29 -22 27 -30 -3 -8 -7 -22 -10 -30 -3 -11 -10 -12 -35 -4 -23 9 -30 17
-30 38 0 23 7 41 15 41 1 0 16 -7 33 -15z m1097 5 c3 -5 1 -10 -4 -10 -6 0
-11 5 -11 10 0 6 2 10 4 10 3 0 8 -4 11 -10z m-1265 -10 c0 -5 -2 -10 -4 -10
-3 0 -8 5 -11 10 -3 6 -1 10 4 10 6 0 11 -4 11 -10z m507 -27 c-3 -10 -5 -4
-5 12 0 17 2 24 5 18 2 -7 2 -21 0 -30z m733 33 c0 -3 -4 -8 -10 -11 -5 -3
-10 -1 -10 4 0 6 5 11 10 11 6 0 10 -2 10 -4z m-961 -41 c18 -5 20 -9 10 -16
-11 -7 -11 -9 -1 -9 11 0 11 -3 -1 -14 -14 -14 -69 -17 -60 -3 2 4 -2 7 -10 7
-20 0 -10 48 12 52 9 2 18 1 21 -3 3 -3 16 -10 29 -14z m875 -15 c34 0 53 -31
34 -56 -6 -9 -17 -8 -43 0 -35 13 -56 26 -39 26 5 0 10 9 10 20 0 11 -4 20 -8
20 -4 0 -5 7 -1 17 5 14 8 13 14 -5 6 -15 17 -22 33 -22z m47 22 c-7 -2 -18 1
-23 6 -8 8 -4 9 13 5 13 -4 18 -8 10 -11z m-413 -14 c14 -12 16 -84 2 -93 -5
-3 -22 1 -37 9 -26 13 -28 18 -25 60 4 42 6 46 26 40 11 -3 27 -11 34 -16z
m32 12 c0 -5 -2 -10 -4 -10 -3 0 -8 5 -11 10 -3 6 -1 10 4 10 6 0 11 -4 11
-10z m-715 -20 c3 -5 1 -10 -4 -10 -6 0 -11 5 -11 10 0 6 2 10 4 10 3 0 8 -4
11 -10z m382 -32 c-3 -7 -5 -2 -5 12 0 14 2 19 5 13 2 -7 2 -19 0 -25z m843
28 c0 -11 -19 -15 -25 -6 -3 5 1 10 9 10 9 0 16 -2 16 -4z m-57 -15 c20 -8 24
-15 19 -36 -4 -21 -9 -26 -26 -21 -11 3 -29 6 -38 6 -13 0 -18 8 -18 30 0 33
17 38 63 21z m-1250 -8 c-7 -2 -19 -2 -25 0 -7 3 -2 5 12 5 14 0 19 -2 13 -5z
m794 -25 c-3 -8 -6 -5 -6 6 -1 11 2 17 5 13 3 -3 4 -12 1 -19z m586 3 c7 -7 7
-20 0 -43 -6 -18 -11 -25 -12 -16 -1 10 -11 18 -28 20 -19 2 -29 10 -34 30 -7
25 -5 26 28 23 19 -2 40 -8 46 -14z m-1766 -53 c-2 -13 -4 -3 -4 22 0 25 2 35
4 23 2 -13 2 -33 0 -45z m473 58 c0 -3 -4 -8 -10 -11 -5 -3 -10 -1 -10 4 0 6
5 11 10 11 6 0 10 -2 10 -4z m97 -12 c-3 -3 -12 -4 -19 -1 -8 3 -5 6 6 6 11 1
17 -2 13 -5z m-149 -10 c16 -5 22 -14 22 -35 0 -35 -11 -42 -44 -29 -20 7 -26
16 -26 40 0 31 7 35 48 24z m684 -23 c16 -8 26 -16 25 -18 -7 -7 -67 29 -67
40 0 8 3 8 8 2 4 -6 19 -16 34 -24z m-562 9 c10 -6 14 -21 12 -42 -5 -44 -14
-51 -45 -37 -20 9 -27 19 -27 42 0 28 1 29 38 23 36 -6 37 -6 12 8 -14 9 -20
15 -15 15 6 1 17 -4 25 -9z m650 0 c0 -5 -5 -10 -11 -10 -5 0 -7 5 -4 10 3 6
8 10 11 10 2 0 4 -4 4 -10z m-833 -32 c-3 -8 -6 -5 -6 6 -1 11 2 17 5 13 3 -3
4 -12 1 -19z m1130 16 c-3 -3 -12 -4 -19 -1 -8 3 -5 6 6 6 11 1 17 -2 13 -5z
m-864 -21 c12 -4 17 -15 17 -38 0 -30 -2 -32 -27 -27 -34 6 -43 18 -43 56 0
23 3 27 18 21 9 -4 25 -10 35 -12z m462 -1 c-3 -3 -11 0 -18 7 -9 10 -8 11 6
5 10 -3 15 -9 12 -12z m452 2 c-3 -3 -12 -4 -19 -1 -8 3 -5 6 6 6 11 1 17 -2
13 -5z m91 -10 c32 -9 30 -50 -2 -56 -13 -3 -32 -1 -41 4 -14 9 -15 5 -9 -29
8 -49 19 -60 40 -42 12 9 15 10 10 2 -4 -7 -3 -13 1 -13 5 0 18 -7 29 -16 10
-8 14 -13 8 -10 -7 3 -14 -3 -17 -14 -4 -16 -12 -20 -36 -18 -17 1 -31 7 -31
13 0 5 -5 3 -10 -5 -8 -13 -10 -12 -10 3 0 9 5 17 11 17 8 0 8 5 -1 15 -7 9
-8 15 -2 15 6 0 7 13 1 38 -7 33 -4 73 8 95 5 8 20 9 51 1z m-68 -18 c0 -3 -4
-8 -10 -11 -5 -3 -10 -1 -10 4 0 6 5 11 10 11 6 0 10 -2 10 -4z m193 -6 c12 0
17 -8 17 -26 0 -23 -3 -25 -37 -22 -34 3 -38 6 -41 32 -3 26 -1 28 20 23 13
-4 31 -7 41 -7z m-1333 -10 c0 -5 -2 -10 -4 -10 -3 0 -8 5 -11 10 -3 6 -1 10
4 10 6 0 11 -4 11 -10z m95 -20 c3 -5 1 -10 -4 -10 -6 0 -11 5 -11 10 0 6 2
10 4 10 3 0 8 -4 11 -10z m-70 -30 c11 -5 14 -9 8 -9 -14 -1 -18 -46 -5 -54 4
-2 1 -2 -6 0 -8 2 -25 6 -38 9 -15 4 -24 2 -24 -6 0 -6 5 -8 12 -4 7 4 8 3 4
-5 -4 -6 -12 -9 -17 -6 -5 4 -9 2 -9 -4 0 -13 35 -23 90 -27 25 -1 59 -8 75
-14 17 -7 49 -15 73 -17 l42 -6 0 -46 c0 -25 -4 -41 -8 -35 -10 16 -62 30
-182 49 -58 9 -105 18 -106 18 -1 1 -4 22 -7 47 -4 28 -3 37 2 25 7 -17 10
-14 16 17 4 21 5 44 2 52 -3 8 -3 17 0 20 9 9 54 6 78 -4z m55 0 c0 -5 -2 -10
-4 -10 -3 0 -8 5 -11 10 -3 6 -1 10 4 10 6 0 11 -4 11 -10z m1110 0 c0 -5 -5
-10 -11 -10 -5 0 -7 5 -4 10 3 6 8 10 11 10 2 0 4 -4 4 -10z m-950 -14 c0 -3
-4 -8 -10 -11 -5 -3 -10 -1 -10 4 0 6 5 11 10 11 6 0 10 -2 10 -4z m863 -3
c-7 -2 -19 -2 -25 0 -7 3 -2 5 12 5 14 0 19 -2 13 -5z m-908 -13 c-3 -5 1 -10
9 -10 10 0 16 -9 16 -25 0 -14 5 -25 10 -25 6 0 10 -4 10 -9 0 -9 -65 -5 -81
5 -16 9 -10 53 9 63 22 13 35 14 27 1z m928 -22 c16 -25 -8 -49 -42 -41 -31 7
-40 19 -34 44 7 23 61 22 76 -3z m3237 -64 c173 -8 316 -17 319 -19 2 -3 1 -8
-2 -11 -8 -8 -737 25 -775 35 -2 1 0 6 3 12 4 6 32 8 73 4 37 -3 209 -12 382
-21z m-3283 10 c-3 -3 -12 -4 -19 -1 -8 3 -5 6 6 6 11 1 17 -2 13 -5z m190
-46 c-3 -7 -5 -2 -5 12 0 14 2 19 5 13 2 -7 2 -19 0 -25z m-154 12 c20 12 21
12 8 -3 -9 -11 -10 -17 -2 -17 6 0 11 -11 11 -25 0 -19 -5 -25 -21 -25 -36 0
-61 19 -53 42 3 12 2 18 -3 15 -5 -4 -10 0 -10 7 0 11 5 12 24 3 19 -8 30 -8
46 3z m67 -16 c0 3 11 1 24 -4 17 -6 26 -5 29 3 2 7 3 0 1 -15 -2 -15 2 -29 9
-32 7 -2 4 -5 -5 -5 -10 -1 -18 -7 -18 -13 0 -10 -2 -10 -9 0 -4 8 -11 13 -15
13 -34 -5 -44 1 -48 29 -5 36 0 44 19 29 7 -6 13 -9 13 -5z m3056 -19 c421
-22 435 -23 442 -29 16 -16 -30 -16 -310 -2 -402 21 -468 26 -468 37 0 12 7
12 336 -6z m-2895 -17 c9 -14 3 -52 -9 -56 -7 -2 -12 1 -12 7 0 6 -11 11 -25
11 -21 0 -25 5 -25 30 0 28 2 29 33 23 17 -3 35 -10 38 -15z m-1248 -5 c-7 -2
-21 -2 -30 0 -10 3 -4 5 12 5 17 0 24 -2 18 -5z m67 -28 c-7 -8 -17 -15 -23
-15 -6 0 -2 7 9 15 25 19 30 19 14 0z m-566 -21 c3 -8 2 -12 -4 -9 -6 3 -10
10 -10 16 0 14 7 11 14 -7z m835 3 c19 -9 24 -20 24 -49 0 -45 -6 -53 -30 -43
-10 5 -22 9 -28 9 -5 1 -11 17 -13 36 -2 19 -8 41 -14 47 -14 17 28 17 61 0z
m3994 -8 c209 -10 257 -15 257 -27 0 -11 -13 -13 -67 -8 -38 3 -210 13 -383
22 -182 9 -319 20 -325 26 -11 11 40 10 518 -13z m-4136 -25 c1 -18 0 -22 -4
-9 -3 11 -10 26 -17 34 -9 11 -8 13 4 9 8 -2 16 -18 17 -34z m60 14 c-3 -8 -6
-5 -6 6 -1 11 2 17 5 13 3 -3 4 -12 1 -19z m803 12 c0 -5 -4 -10 -10 -10 -5 0
-10 5 -10 10 0 6 5 10 10 10 6 0 10 -4 10 -10z m-619 -29 c4 -3 9 -30 11 -59
3 -30 2 -50 -1 -45 -3 5 -21 15 -38 22 -31 13 -33 17 -33 62 l0 49 28 -12 c15
-7 30 -14 33 -17z m-271 -1 c0 -5 -2 -10 -4 -10 -3 0 -8 5 -11 10 -3 6 -1 10
4 10 6 0 11 -4 11 -10z m62 -22 c-9 -9 -12 -7 -12 12 0 19 3 21 12 12 9 -9 9
-15 0 -24z m796 6 c8 -2 12 -14 10 -28 -1 -13 4 -32 12 -42 14 -17 13 -18 -1
-7 -9 7 -20 9 -24 5 -5 -4 -5 -1 -1 6 5 8 0 12 -13 12 -37 0 -51 12 -51 41 0
27 2 29 28 23 15 -3 33 -8 40 -10z m54 -4 c2 -5 18 -10 35 -12 22 -1 29 -6 23
-12 -14 -14 -13 -39 2 -30 6 4 8 3 4 -4 -6 -11 -65 -10 -83 1 -11 7 -5 67 7
67 5 0 10 -4 12 -10z m3076 -15 c368 -18 432 -23 432 -37 0 -7 -29 -9 -87 -5
-49 4 -196 11 -328 17 -300 14 -365 19 -365 31 0 11 -14 12 348 -6z m-4215
-12 c-3 -7 -6 -13 -8 -13 -2 0 -5 6 -8 13 -3 8 1 14 8 14 7 0 11 -6 8 -14z
m278 -12 c5 -13 5 -20 0 -16 -5 3 -12 -1 -15 -7 -3 -7 -3 -2 0 11 4 14 1 27
-7 33 -12 8 -12 9 0 6 8 -2 18 -14 22 -27z m386 18 c26 -8 32 -17 35 -47 7
-51 3 -57 -37 -58 -20 0 -30 3 -24 6 8 6 8 9 0 14 -10 6 -17 96 -7 96 1 0 17
-5 33 -11z m-693 -22 c16 -12 17 -16 5 -35 -8 -12 -21 -22 -29 -22 -8 0 -24
-12 -34 -27 -11 -17 -15 -20 -11 -8 4 11 10 39 12 63 6 45 23 54 57 29z m381
-7 c3 -5 1 -10 -4 -10 -6 0 -11 5 -11 10 0 6 2 10 4 10 3 0 8 -4 11 -10z
m-456 -54 c-9 -8 -10 -7 -5 7 3 10 7 26 7 35 1 9 4 6 6 -7 3 -13 -1 -28 -8
-35z m1168 12 c-3 -7 -5 -2 -5 12 0 14 2 19 5 13 2 -7 2 -19 0 -25z m3306 7
c148 -7 271 -16 274 -19 4 -3 4 -9 0 -12 -6 -6 -565 20 -709 32 -38 3 -68 11
-68 16 0 7 39 8 118 4 64 -4 238 -13 385 -21z m-3910 8 c-7 -2 -19 -2 -25 0
-7 3 -2 5 12 5 14 0 19 -2 13 -5z m590 -37 c24 -5 35 -2 44 11 12 16 13 16 13
0 0 -9 -5 -17 -11 -17 -7 0 -9 -11 -6 -26 4 -24 3 -25 -36 -22 l-41 4 -2 44
c-1 25 0 38 3 29 2 -9 18 -20 36 -23z m-673 4 c8 -5 11 -10 5 -10 -5 0 -17 5
-25 10 -8 5 -10 10 -5 10 6 0 17 -5 25 -10z m796 -10 c17 0 19 -48 3 -70 -9
-13 -10 -12 -5 3 4 12 0 17 -13 17 -36 0 -48 10 -43 35 4 23 33 39 40 23 2 -4
10 -8 18 -8z m-757 -17 c1 -10 2 -31 4 -48 1 -16 -2 -37 -7 -47 -9 -14 -12
-15 -32 -1 -13 8 -27 13 -31 10 -4 -3 -6 17 -4 45 3 49 3 49 32 43 18 -4 29
-3 29 4 0 18 9 12 9 -6z m3931 -9 c161 -8 296 -17 299 -19 15 -16 -46 -16
-371 -1 -389 19 -412 21 -402 37 4 7 36 9 93 5 47 -4 219 -13 381 -22z m-4419
-15 c-5 -13 -10 -19 -10 -12 -1 15 10 45 15 40 3 -2 0 -15 -5 -28z m-26 -9 c3
-5 1 -10 -4 -10 -6 0 -11 5 -11 10 0 6 2 10 4 10 3 0 8 -4 11 -10z m577 -32
c-31 -12 -42 -8 -42 17 0 24 0 24 30 7 25 -14 27 -18 12 -24z m112 8 c7 3 13
-2 13 -10 0 -12 -7 -14 -26 -9 -36 8 -41 12 -41 29 0 13 2 13 21 0 12 -8 27
-12 33 -10z m3641 -12 c404 -20 430 -22 412 -40 -3 -3 -135 1 -294 10 -449 25
-483 27 -483 39 0 7 42 8 128 3 70 -3 177 -9 237 -12z m-3911 -48 c-3 -15 -8
-25 -11 -23 -2 3 -1 17 3 31 3 15 8 25 11 23 2 -3 1 -17 -3 -31z m59 -8 c6
-23 6 -23 -9 -3 -13 17 -16 18 -24 5 -5 -8 -10 -19 -10 -24 0 -5 -3 -7 -6 -4
-9 10 15 48 30 48 8 0 16 -10 19 -22z m-786 -2 c0 -8 -6 -12 -15 -9 -11 5 -11
7 0 14 7 5 13 9 14 9 0 0 1 -6 1 -14z m1081 -11 c-3 -3 -9 2 -12 12 -6 14 -5
15 5 6 7 -7 10 -15 7 -18z m412 -28 c0 -26 -2 -28 -37 -25 -33 3 -38 6 -40 31
-2 26 0 27 33 21 30 -6 34 -4 28 12 -5 16 -4 16 5 4 6 -8 11 -28 11 -43z
m-1455 33 c3 -5 1 -10 -4 -10 -6 0 -11 5 -11 10 0 6 2 10 4 10 3 0 8 -4 11
-10z m4540 1 c77 -5 215 -13 308 -16 137 -6 167 -10 167 -22 0 -12 -11 -14
-57 -9 -32 3 -114 8 -183 11 -69 3 -154 8 -190 10 -36 2 -127 7 -203 11 -75 3
-140 10 -143 15 -7 11 123 11 301 0z m-2982 -41 c7 -29 -7 -41 -54 -44 -24 -2
-38 -1 -31 1 6 3 12 17 12 32 0 35 4 38 39 33 17 -2 31 -11 34 -22z m55 -38
c6 -18 -15 -14 -22 4 -4 10 -1 14 6 12 6 -2 14 -10 16 -16z m3077 -3 c77 -5
182 -9 233 -9 77 0 92 -3 92 -16 0 -13 -14 -15 -102 -9 -130 7 -649 35 -665
35 -7 0 -13 5 -13 11 0 12 158 8 455 -12z m-4464 -7 c-7 -2 -18 1 -23 6 -8 8
-4 9 13 5 13 -4 18 -8 10 -11z m-144 -39 c-3 -10 -5 -4 -5 12 0 17 2 24 5 18
2 -7 2 -21 0 -30z m-5381 0 c27 -2 65 -9 84 -14 31 -9 35 -15 36 -45 0 -27 -3
-33 -15 -30 -9 3 -53 8 -98 11 l-83 7 0 33 c0 43 10 71 20 55 4 -7 29 -14 56
-17z m19 9 c-3 -3 -11 0 -18 7 -9 10 -8 11 6 5 10 -3 15 -9 12 -12z m5312 -14
c-3 -7 -5 -2 -5 12 0 14 2 19 5 13 2 -7 2 -19 0 -25z m605 0 c-8 -8 -9 -4 -5
13 4 13 8 18 11 10 2 -7 -1 -18 -6 -23z m-6059 -29 c-4 -30 -8 -36 -24 -32
-24 7 -25 51 -1 69 23 17 30 6 25 -37z m37 41 c0 -5 -5 -10 -11 -10 -5 0 -7 5
-4 10 3 6 8 10 11 10 2 0 4 -4 4 -10z m5945 0 c3 -5 1 -10 -4 -10 -6 0 -11 5
-11 10 0 6 2 10 4 10 3 0 8 -4 11 -10z m975 -5 c11 7 21 -21 14 -39 -7 -18
-24 -24 -49 -17 -14 4 -20 15 -21 37 0 30 2 31 24 23 13 -5 27 -7 32 -4z
m2830 -4 c0 -18 -18 -21 -74 -15 -76 9 -71 24 9 24 36 0 65 -4 65 -9z m598
-28 c28 -3 52 -10 52 -16 0 -6 -37 -7 -102 -4 -57 4 -158 9 -226 13 -67 4
-125 11 -129 17 -6 10 291 3 405 -10z m-4901 -30 c-3 -10 -5 -4 -5 12 0 17 2
24 5 18 2 -7 2 -21 0 -30z m620 5 c-3 -7 -5 -2 -5 12 0 14 2 19 5 13 2 -7 2
-19 0 -25z m-37 13 c0 -5 -7 -12 -16 -15 -14 -5 -15 -4 -4 9 14 17 20 19 20 6z
m77 -13 c-3 -8 -6 -5 -6 6 -1 11 2 17 5 13 3 -3 4 -12 1 -19z m-1953 2 c-7 -7
-19 -7 -35 -1 -23 9 -22 10 11 10 23 1 31 -2 24 -9z m2321 -10 c3 -5 2 -10 -4
-10 -5 0 -13 5 -16 10 -3 6 -2 10 4 10 5 0 13 -4 16 -10z m412 -47 c-3 -10 -5
-4 -5 12 0 17 2 24 5 18 2 -7 2 -21 0 -30z m-427 11 c0 -2 -7 -4 -15 -4 -8 0
-15 4 -15 10 0 5 7 7 15 4 8 -4 15 -8 15 -10z m400 -14 c0 -11 -2 -20 -4 -20
-2 0 -6 9 -9 20 -3 11 -1 20 4 20 5 0 9 -9 9 -20z m-1403 -12 c-3 -8 -6 -5 -6
6 -1 11 2 17 5 13 3 -3 4 -12 1 -19z m1043 -1 c10 -4 8 -6 -7 -6 -16 -1 -23 5
-23 17 0 10 3 13 8 6 4 -6 14 -14 22 -17z m17 17 c-3 -3 -12 -4 -19 -1 -8 3
-5 6 6 6 11 1 17 -2 13 -5z m2333 -3 c0 -4 18 -21 40 -36 22 -15 38 -31 35
-35 -3 -4 2 -24 10 -44 8 -19 15 -46 14 -58 -1 -23 -1 -23 -7 -1 -9 28 -49 59
-92 70 -29 8 -36 15 -41 44 -6 25 -3 39 8 52 17 18 33 22 33 8z m840 -1 c0 -5
-13 -10 -29 -10 -17 0 -33 5 -36 10 -4 6 8 10 29 10 20 0 36 -4 36 -10z
m-9565 -10 c3 -5 1 -10 -4 -10 -6 0 -11 5 -11 10 0 6 2 10 4 10 3 0 8 -4 11
-10z m6325 -16 c0 -20 -7 -17 -20 6 -9 16 -8 18 5 14 8 -4 15 -12 15 -20z
m3778 10 c122 -5 172 -10 172 -18 0 -13 -51 -12 -294 2 -80 5 -111 11 -114 21
-4 11 3 12 29 8 19 -3 112 -9 207 -13z m-4111 0 c-3 -3 -12 -4 -19 -1 -8 3 -5
6 6 6 11 1 17 -2 13 -5z m720 -17 c3 -4 2 -19 -1 -31 -5 -21 -10 -23 -38 -17
-27 5 -34 12 -36 34 -3 26 -1 28 33 25 20 -1 39 -6 42 -11z m-6679 -24 c2 -13
7 -23 12 -23 5 0 8 -9 7 -19 -1 -13 -7 -18 -21 -15 -26 5 -32 13 -40 52 -5 30
-4 33 17 30 14 -2 23 -11 25 -25z m9522 -8 c0 -16 -17 -19 -44 -9 -22 9 -10
24 20 24 15 0 24 -6 24 -15z m-3553 -1 c-3 -3 -12 -4 -19 -1 -8 3 -5 6 6 6 11
1 17 -2 13 -5z m490 -26 c-3 -8 -6 -5 -6 6 -1 11 2 17 5 13 3 -3 4 -12 1 -19z
m3666 6 c67 -4 117 -11 117 -16 0 -7 -61 -8 -177 -4 -188 8 -213 11 -213 28 0
6 27 8 78 4 42 -3 130 -9 195 -12z m-4213 -14 c0 -5 -5 -10 -11 -10 -5 0 -7 5
-4 10 3 6 8 10 11 10 2 0 4 -4 4 -10z m3610 -30 c0 -5 -11 -10 -25 -10 -14 0
-25 5 -25 10 0 6 11 10 25 10 14 0 25 -4 25 -10z m-3605 -10 c-3 -5 -12 -10
-18 -10 -7 0 -6 4 3 10 19 12 23 12 15 0z m4268 -16 c58 -6 80 -24 30 -24 -91
0 -360 23 -368 31 -10 10 221 5 338 -7z m-9603 -45 c0 -5 -4 -9 -10 -9 -5 0
-10 7 -10 16 0 8 5 12 10 9 6 -3 10 -10 10 -16z m8960 2 c17 -5 21 -9 12 -15
-16 -10 -92 2 -92 15 0 10 43 10 80 0z m624 -27 c25 -4 46 -11 46 -17 0 -12
-236 -1 -259 13 -19 11 139 14 213 4z m-3624 -20 c0 -2 -7 -4 -15 -4 -8 0 -15
4 -15 10 0 5 7 7 15 4 8 -4 15 -8 15 -10z m50 6 c0 -5 -4 -10 -10 -10 -5 0
-10 5 -10 10 0 6 5 10 10 10 6 0 10 -4 10 -10z m2945 -26 c0 -11 -41 -18 -61
-10 -9 3 -13 10 -9 16 7 12 70 6 70 -6z m-5739 -216 c-6 -59 -66 -198 -86
-198 -13 0 -15 -12 24 141 19 74 38 168 42 209 l8 75 8 -85 c5 -47 6 -111 4
-142z m2781 180 c-3 -8 -6 -5 -6 6 -1 11 2 17 5 13 3 -3 4 -12 1 -19z m3555
16 c79 -8 81 -24 4 -24 -65 0 -116 9 -116 21 0 11 22 11 112 3z m-9652 -14 c0
-5 -7 -10 -15 -10 -8 0 -15 -4 -15 -9 0 -4 10 -6 23 -4 18 3 27 -5 50 -47 16
-28 26 -57 24 -65 -3 -7 3 -15 14 -18 26 -7 24 -26 -3 -37 -22 -8 -22 -9 5 -9
15 -1 27 -5 27 -9 0 -5 -12 -13 -27 -19 l-28 -11 30 -1 30 -1 -25 -20 c-19
-15 -21 -20 -8 -20 20 0 13 -39 -9 -47 -10 -4 -11 -8 -4 -13 17 -10 -10 -85
-29 -85 -8 0 -19 10 -25 23 -7 15 -18 22 -36 22 -21 0 -30 8 -43 34 -23 49
-31 144 -16 207 24 109 41 149 61 149 10 0 19 -4 19 -10z m6075 1 c3 -5 1 -12
-4 -15 -5 -3 -11 1 -15 9 -6 16 9 21 19 6z m-48 -23 c-3 -8 -6 -5 -6 6 -1 11
2 17 5 13 3 -3 4 -12 1 -19z m3641 -28 c23 0 42 -4 42 -10 0 -6 -33 -10 -80
-10 -67 0 -80 3 -80 16 0 14 7 15 38 10 20 -3 56 -6 80 -6z m-4278 -75 c0 -5
-5 -3 -10 5 -5 8 -10 20 -10 25 0 6 5 3 10 -5 5 -8 10 -19 10 -25z m-4667
-182 c-15 -13 -31 -23 -35 -23 -15 0 -1 147 19 215 4 13 13 -14 26 -75 l19
-94 -29 -23z m8961 191 c62 -9 58 -24 -6 -24 -68 0 -128 10 -128 21 0 11 68
12 134 3z m-4287 -43 c0 -11 -5 -18 -9 -15 -4 3 -5 11 -1 19 7 21 12 19 10 -4z
m470 -38 c-3 -10 -5 -4 -5 12 0 17 2 24 5 18 2 -7 2 -21 0 -30z m3847 11 c25
-4 46 -11 46 -17 0 -12 -181 0 -194 13 -12 12 75 14 148 4z m-3627 -26 c-3 -8
-6 -5 -6 6 -1 11 2 17 5 13 3 -3 4 -12 1 -19z m164 -40 c-3 -21 -6 -26 -9 -15
-3 17 3 47 11 47 2 0 1 -15 -2 -32z m-58 -19 c-4 -14 -11 -17 -32 -13 -44 10
-49 12 -60 32 -9 17 -7 18 43 9 45 -8 53 -13 49 -28z m3516 10 l36 -1 -35 -9
c-53 -13 -118 -8 -125 9 -4 12 3 14 41 8 26 -3 63 -6 83 -7z m-3482 -51 c-3
-7 -5 -2 -5 12 0 14 2 19 5 13 2 -7 2 -19 0 -25z m-70 16 c-3 -3 -12 -4 -19
-1 -8 3 -5 6 6 6 11 1 17 -2 13 -5z m3303 -24 c0 -5 -4 -10 -9 -10 -6 0 -13 5
-16 10 -3 6 1 10 9 10 9 0 16 -4 16 -10z m-3231 -16 c6 4 11 2 11 -4 0 -6 5
-8 11 -4 9 5 10 -1 5 -22 -9 -36 -11 -38 -31 -31 -8 4 -15 18 -15 32 0 14 -4
25 -10 25 -5 0 -10 -9 -10 -20 0 -13 -7 -20 -19 -20 -11 0 -26 -6 -34 -14 -12
-12 -14 -9 -15 25 -2 39 -2 40 33 37 19 -1 38 1 41 5 4 4 11 2 15 -4 4 -6 12
-8 18 -5z m3241 -44 c0 -5 -11 -10 -25 -10 -14 0 -25 5 -25 10 0 6 11 10 25
10 14 0 25 -4 25 -10z m-3515 -10 c-11 -5 -27 -9 -35 -9 -9 0 -8 4 5 9 11 5
27 9 35 9 9 0 8 -4 -5 -9z m-2623 -106 c1 -177 -37 -294 -96 -294 -21 0 -22 4
-20 90 1 50 -2 93 -7 96 -16 10 -9 32 19 62 15 16 43 52 62 80 19 28 36 49 38
48 2 -2 3 -39 4 -82z m2883 39 c-4 -36 -2 -42 4 -23 9 24 9 24 10 -7 1 -23 -4
-33 -14 -33 -16 0 -20 44 -9 88 10 36 14 25 9 -25z m-105 33 c0 -3 -4 -8 -10
-11 -5 -3 -10 -1 -10 4 0 6 5 11 10 11 6 0 10 -2 10 -4z m3330 -16 c0 -5 -5
-10 -11 -10 -5 0 -7 5 -4 10 3 6 8 10 11 10 2 0 4 -4 4 -10z m-3573 -42 c-3
-7 -5 -2 -5 12 0 14 2 19 5 13 2 -7 2 -19 0 -25z m316 15 c4 -2 7 -15 7 -29 0
-22 -3 -24 -40 -22 -33 2 -42 7 -47 27 -7 28 12 43 47 34 14 -3 28 -8 33 -10z
m-103 -3 c0 -5 -5 -10 -11 -10 -5 0 -7 5 -4 10 3 6 8 10 11 10 2 0 4 -4 4 -10z
m-3428 -96 c-2 -43 -8 -106 -13 -139 -5 -33 -13 -129 -16 -213 -3 -84 -7 -151
-9 -150 -1 2 -7 48 -14 102 -9 77 -9 140 0 275 12 175 21 216 43 208 8 -3 11
-29 9 -83z m-2587 38 c-2 -10 -15 -47 -28 -85 -26 -70 -37 -67 -31 9 1 21 -2
44 -8 51 -8 9 -7 13 3 13 10 0 10 3 1 12 -20 20 -14 24 27 20 31 -3 39 -8 36
-20z m4770 -2 c-3 -5 -12 -10 -18 -10 -7 0 -6 4 3 10 19 12 23 12 15 0z m50
-10 c3 -5 1 -10 -4 -10 -6 0 -11 5 -11 10 0 6 2 10 4 10 3 0 8 -4 11 -10z
m4615 -51 c0 -5 -16 -9 -35 -9 -22 0 -35 5 -35 13 0 9 11 12 35 9 19 -2 35 -8
35 -13z m666 -107 c12 -28 12 -36 0 -55 -8 -12 -21 -55 -30 -96 -18 -77 -54
-158 -80 -181 -9 -7 -18 -11 -20 -9 -3 2 6 41 19 86 33 112 54 220 62 310 l6
76 14 -49 c8 -27 21 -64 29 -82z m-3949 86 c-3 -7 -5 -2 -5 12 0 14 2 19 5 13
2 -7 2 -19 0 -25z m-2549 -113 l-3 -100 -45 3 c-25 1 -60 2 -77 2 -18 1 -33 6
-33 11 0 6 16 37 35 69 19 32 35 62 35 68 0 6 14 28 32 48 30 34 33 35 45 18
10 -14 13 -47 11 -119z m5822 75 c0 -5 -13 -10 -30 -10 -16 0 -30 5 -30 10 0
6 14 10 30 10 17 0 30 -4 30 -10z m-5 -60 c-3 -5 -17 -10 -31 -10 -13 0 -24 5
-24 10 0 6 14 10 31 10 17 0 28 -4 24 -10z m-3277 -46 c3 -28 1 -30 -35 -31
-21 0 -32 2 -25 4 6 3 12 13 12 24 0 10 -6 19 -12 19 -10 0 -10 2 0 8 7 5 23
8 35 7 17 -1 23 -9 25 -31z m-2917 -31 c-12 -20 -14 -14 -5 12 4 9 9 14 11 11
3 -2 0 -13 -6 -23z m6187 9 c2 -7 -7 -12 -22 -12 -15 0 -26 6 -26 13 0 17 42
15 48 -1z m-6548 -57 c0 -39 -3 -45 -20 -45 -19 0 -20 4 -14 38 8 43 12 52 25
52 5 0 9 -20 9 -45z m3233 5 c8 2 59 -8 90 -16 11 -4 17 -15 17 -34 0 -27 -2
-29 -24 -20 -22 8 -25 6 -28 -17 -2 -15 -9 -28 -16 -29 -7 -1 -8 0 -2 3 11 5
14 54 3 52 -26 -4 -41 4 -46 24 -3 12 -8 33 -11 47 -5 17 -4 19 2 7 4 -10 11
-18 15 -17z m3307 -15 c0 -13 -12 -14 -48 -6 -2 1 0 6 3 11 10 16 45 12 45 -5z
m-9973 -37 c-3 -7 -5 -2 -5 12 0 14 2 19 5 13 2 -7 2 -19 0 -25z m249 5 c-4
-9 -2 -11 6 -7 8 5 9 2 5 -10 -4 -10 -7 -23 -8 -29 -1 -20 -18 26 -18 51 -1
14 3 21 10 17 6 -4 8 -14 5 -22z m70 -88 c25 -86 34 -154 37 -275 1 -30 5 -58
10 -61 5 -4 2 -19 -6 -35 -8 -16 -22 -74 -31 -129 -27 -159 -26 -154 -43 -148
-11 4 -12 8 -2 13 16 10 7 296 -10 313 -6 6 -11 16 -11 21 0 6 5 4 11 -4 7
-11 9 42 8 175 -2 197 0 247 7 230 2 -5 15 -50 30 -100z m3079 55 c-5 -16 -2
-20 14 -20 15 0 21 7 22 23 2 32 20 -108 22 -175 1 -31 5 -60 10 -64 4 -4 7
-74 7 -155 l0 -147 -32 -5 c-18 -3 -42 -8 -54 -12 -19 -6 -22 -1 -33 78 -9 71
-9 101 4 178 8 52 18 145 22 207 3 61 10 112 15 112 5 0 6 -9 3 -20z m3352
-22 c-3 -8 -6 -5 -6 6 -1 11 2 17 5 13 3 -3 4 -12 1 -19z m3203 18 c0 -11 -19
-15 -25 -6 -3 5 1 10 9 10 9 0 16 -2 16 -4z m-9975 -41 c3 -27 -9 -34 -19 -10
-6 16 3 49 12 41 2 -3 6 -17 7 -31z m5222 13 c-3 -8 -6 -5 -6 6 -1 11 2 17 5
13 3 -3 4 -12 1 -19z m30 -10 c-3 -8 -6 -5 -6 6 -1 11 2 17 5 13 3 -3 4 -12 1
-19z m3321 -63 c16 -44 32 -87 36 -95 5 -12 -4 -15 -49 -17 -30 0 -55 2 -55 6
0 4 7 30 15 57 8 27 15 69 15 93 0 24 2 42 4 40 3 -3 18 -40 34 -84z m-3779
36 c11 -21 25 -60 31 -87 14 -60 30 -105 43 -122 6 -7 11 -82 11 -167 1 -161
10 -200 38 -156 20 33 28 25 28 -29 0 -47 -11 -63 -25 -40 -4 6 -14 10 -23 8
-10 -1 -23 1 -29 5 -7 4 -28 5 -48 1 -25 -4 -35 -11 -35 -25 0 -16 -7 -19 -40
-17 -26 1 -40 6 -40 14 0 8 -13 40 -29 71 -27 54 -30 68 -35 206 l-5 147 52 0
c29 0 62 3 74 6 20 6 21 8 8 28 -8 12 -22 57 -31 100 -13 66 -14 80 -2 87 24
16 37 9 57 -30z m-4765 -37 c6 -15 -16 -18 -49 -5 -19 8 -19 8 0 18 22 13 41
7 49 -13z m6693 -40 c-3 -3 -12 -4 -19 -1 -8 3 -5 6 6 6 11 1 17 -2 13 -5z
m68 -32 c56 -7 60 -9 63 -35 l3 -28 -73 5 c-40 3 -77 6 -81 6 -11 0 -25 42
-20 57 3 7 14 11 27 8 11 -3 48 -9 81 -13z m-1378 -14 c-3 -8 -6 -5 -6 6 -1
11 2 17 5 13 3 -3 4 -12 1 -19z m-5120 -10 c-3 -8 -6 -5 -6 6 -1 11 2 17 5 13
3 -3 4 -12 1 -19z m6135 -10 c-8 -8 -9 -4 -5 13 4 13 8 18 11 10 2 -7 -1 -18
-6 -23z m38 11 c0 -5 5 -7 12 -3 7 4 8 3 4 -4 -4 -6 -13 -9 -21 -5 -17 6 -20
23 -5 23 6 0 10 -5 10 -11z m-2110 -25 c0 -8 -4 -12 -10 -9 -6 4 -7 -2 -1 -17
6 -15 15 -22 27 -19 23 4 31 5 65 3 25 -2 27 -6 40 -94 15 -106 18 -200 6
-241 -7 -27 -11 -28 -45 -23 -20 3 -49 8 -64 12 -18 4 -36 1 -50 -8 -31 -20
-67 -28 -74 -17 -5 8 11 53 42 112 8 16 14 45 14 65 0 20 7 73 14 117 8 44 12
83 9 88 -8 13 7 58 17 52 6 -3 10 -13 10 -21z m2458 -41 c-2 -12 4 -19 20 -21
17 -3 22 -10 22 -32 0 -28 -1 -28 -47 -25 -51 4 -115 13 -119 18 -1 1 -5 14
-9 28 -6 26 -6 26 44 21 28 -2 58 -1 68 3 17 7 17 8 -2 15 -19 8 -19 9 3 9 16
1 22 -4 20 -16z m-1401 -15 c-3 -8 -6 -5 -6 6 -1 11 2 17 5 13 3 -3 4 -12 1
-19z m599 -3 c8 -30 8 -30 -31 -39 -19 -4 -25 -3 -17 2 11 8 11 10 -2 15 -23
9 -20 26 7 37 33 13 36 12 43 -15z m2609 -15 c-3 -5 -17 -10 -31 -10 -13 0
-24 5 -24 10 0 6 14 10 31 10 17 0 28 -4 24 -10z m1405 -20 c0 -5 -9 -10 -19
-10 -11 0 -23 5 -26 10 -4 6 5 10 19 10 14 0 26 -4 26 -10z m-4653 -32 c-3 -7
-5 -2 -5 12 0 14 2 19 5 13 2 -7 2 -19 0 -25z m20 10 c-3 -8 -6 -5 -6 6 -1 11
2 17 5 13 3 -3 4 -12 1 -19z m-1243 -65 c-3 -37 -7 -69 -9 -71 -2 -3 -19 2
-36 11 -18 8 -38 13 -46 10 -25 -10 -62 6 -65 30 -4 32 -71 38 -90 7 -7 -12
-28 -28 -45 -35 -18 -8 -33 -19 -33 -24 0 -6 -9 -11 -20 -11 -10 0 -23 -8 -29
-17 -5 -10 -13 -14 -18 -10 -4 5 2 16 13 25 12 9 30 45 40 79 17 56 21 61 44
57 21 -4 167 -22 208 -26 6 -1 12 -5 12 -9 0 -18 29 4 34 27 4 15 14 24 26 24
17 0 19 -6 14 -67z m2533 45 c-3 -8 -6 -5 -6 6 -1 11 2 17 5 13 3 -3 4 -12 1
-19z m2030 -94 c4 -22 2 -34 -6 -34 -6 0 -11 -4 -11 -10 0 -5 9 -10 20 -10 17
0 20 -7 20 -44 0 -24 3 -51 6 -60 5 -13 -1 -16 -27 -16 -19 0 -63 -7 -99 -14
-56 -12 -67 -12 -81 0 -8 8 -21 14 -27 14 -7 0 -12 12 -12 26 0 21 4 25 18 19
42 -16 72 -18 72 -3 0 15 -59 38 -98 38 -11 0 -22 7 -26 15 -4 12 3 13 38 9
59 -8 70 12 14 24 -31 7 -36 10 -17 11 35 1 84 27 70 36 -6 3 -9 10 -6 15 3 5
-9 10 -27 12 -53 5 -47 28 9 29 74 2 78 3 78 19 0 8 9 18 20 21 25 7 64 -45
72 -97z m-441 -50 c2 -85 -1 -110 -12 -119 -18 -12 -9 -45 12 -45 8 0 14 -9
14 -21 0 -19 -1 -19 -22 -5 -12 9 -35 16 -50 16 -16 0 -28 5 -28 10 0 6 7 10
16 10 14 0 14 3 4 15 -7 8 -21 15 -31 15 -12 0 -19 7 -19 20 0 15 7 20 29 20
17 0 33 5 36 10 4 6 15 8 26 5 11 -4 19 -2 19 5 0 6 -13 13 -29 16 -42 9 -64
35 -55 68 4 17 13 26 26 26 11 0 22 8 25 20 3 11 12 20 19 20 8 0 14 5 14 10
0 6 -6 10 -13 10 -7 0 -22 7 -33 15 -17 13 -15 13 16 1 l34 -14 2 -108z m1744
121 c0 -8 -4 -15 -9 -15 -13 0 -22 16 -14 24 11 11 23 6 23 -9z m-3193 -17
c-3 -8 -6 -5 -6 6 -1 11 2 17 5 13 3 -3 4 -12 1 -19z m-795 -27 c2 -17 1 -28
-3 -25 -4 2 -9 -15 -11 -38 -2 -32 -7 -42 -18 -39 -8 2 -22 4 -30 5 -15 3 -32
77 -21 95 4 5 18 8 33 8 14 -1 24 -5 21 -9 -2 -5 1 -8 6 -8 6 0 11 9 11 20 0
30 7 24 12 -9z m25 7 c-3 -8 -6 -5 -6 6 -1 11 2 17 5 13 3 -3 4 -12 1 -19z
m-6014 -37 c40 -1 47 -4 47 -20 0 -11 -3 -22 -7 -24 -7 -4 -57 1 -153 16 -16
2 -26 11 -28 24 -3 19 0 19 45 12 26 -4 69 -8 96 -8z m5067 -13 c-6 -19 -6
-36 0 -43 5 -6 5 -16 0 -25 -13 -20 -13 -43 0 -35 14 9 12 -18 -2 -34 -9 -10
-9 -12 -1 -7 9 5 10 -3 6 -29 -3 -21 -1 -41 7 -50 15 -18 12 -18 -29 -4 -19 7
-31 18 -31 29 0 26 30 178 40 206 14 35 20 30 10 -8z m1753 15 c-8 -3 -9 -13
-3 -34 l9 -30 -41 3 c-36 3 -43 7 -49 31 -7 26 -6 27 31 27 21 0 42 5 45 11 4
6 10 7 14 3 3 -4 1 -9 -6 -11z m-1483 1 c0 -8 -19 -13 -24 -6 -3 5 1 9 9 9 8
0 15 -2 15 -3z m967 -26 c-3 -7 -5 -2 -5 12 0 14 2 19 5 13 2 -7 2 -19 0 -25z
m403 22 c0 -5 -2 -10 -4 -10 -3 0 -8 5 -11 10 -3 6 -1 10 4 10 6 0 11 -4 11
-10z m-661 -26 c28 -35 29 -94 2 -94 -27 0 -39 19 -41 65 -3 66 5 72 39 29z
m288 -11 c-3 -10 -5 -4 -5 12 0 17 2 24 5 18 2 -7 2 -21 0 -30z m-462 8 c-14
-12 -73 -25 -60 -13 6 6 21 12 35 15 14 2 27 5 30 6 2 0 0 -3 -5 -8z m-555 -5
c0 -3 -4 -8 -10 -11 -5 -3 -10 -1 -10 4 0 6 5 11 10 11 6 0 10 -2 10 -4z
m-5060 -43 c-11 -17 -11 -17 -6 0 3 10 6 24 7 30 0 9 2 9 5 0 3 -7 0 -20 -6
-30z m-283 21 c-3 -3 -12 -4 -19 -1 -8 3 -5 6 6 6 11 1 17 -2 13 -5z m4153
-49 l0 -56 -46 2 c-25 2 -47 6 -49 10 -3 3 -17 4 -31 1 -19 -3 -25 -1 -20 7 4
6 17 11 30 11 12 0 31 7 42 15 10 8 27 15 36 15 10 0 20 11 24 25 10 39 14 30
14 -30z m1667 33 c-3 -8 -6 -5 -6 6 -1 11 2 17 5 13 3 -3 4 -12 1 -19z m200 3
c0 -11 -5 -18 -9 -15 -4 3 -5 11 -1 19 7 21 12 19 10 -4z m713 9 c0 -5 -2 -10
-4 -10 -3 0 -8 5 -11 10 -3 6 -1 10 4 10 6 0 11 -4 11 -10z m-6658 -24 c4 -6
8 -23 8 -38 0 -26 -3 -28 -42 -28 -24 1 -63 5 -88 10 -29 5 -47 5 -51 -2 -8
-13 -19 17 -19 53 l0 30 93 -7 c50 -4 95 -12 99 -18z m5253 14 c3 -5 1 -10 -4
-10 -6 0 -11 5 -11 10 0 6 2 10 4 10 3 0 8 -4 11 -10z m1443 -11 c3 -12 2 -12
-6 0 -8 11 -10 11 -15 0 -4 -10 -6 -8 -6 4 -1 21 21 18 27 -4z m-6947 -36 c-9
-16 -10 -16 -11 -1 0 9 3 25 7 35 7 16 8 17 11 1 2 -10 -1 -25 -7 -35z m6834
37 c-6 -10 20 -15 58 -12 13 1 17 -6 17 -33 0 -23 -4 -33 -12 -31 -7 3 -25 7
-40 10 -20 4 -25 11 -21 25 3 10 0 22 -6 25 -14 9 -14 26 0 26 5 0 7 -4 4 -10z
m202 -27 c-3 -10 -5 -4 -5 12 0 17 2 24 5 18 2 -7 2 -21 0 -30z m3413 27 c0
-5 -4 -10 -10 -10 -5 0 -10 5 -10 10 0 6 5 10 10 10 6 0 10 -4 10 -10z m-7825
-212 c7 -26 5 -28 -20 -28 -27 0 -27 1 -21 43 4 23 6 68 6 100 -2 105 14 111
22 7 3 -52 9 -107 13 -122z m3322 170 c-3 -8 -6 -5 -6 6 -1 11 2 17 5 13 3 -3
4 -12 1 -19z m1047 12 c16 -6 26 -17 26 -29 0 -26 -14 -34 -50 -26 -25 5 -30
12 -30 36 0 31 11 36 54 19z m-1391 -7 c-7 -2 -19 -2 -25 0 -7 3 -2 5 12 5 14
0 19 -2 13 -5z m31 -28 c5 -21 4 -26 -3 -15 -5 8 -34 17 -63 21 l-53 7 53 -1
c39 -2 52 2 52 12 0 21 6 10 14 -24z m296 25 c0 -5 -5 -10 -11 -10 -5 0 -7 5
-4 10 3 6 8 10 11 10 2 0 4 -4 4 -10z m627 -22 c-3 -7 -5 -2 -5 12 0 14 2 19
5 13 2 -7 2 -19 0 -25z m-5653 -3 c9 -13 16 -36 16 -50 0 -14 5 -25 10 -25 14
0 12 -37 -2 -43 -8 -4 -7 -6 3 -6 34 -2 39 -55 7 -66 -22 -8 -22 -8 5 -12 15
-2 32 -13 37 -24 10 -17 7 -19 -25 -19 -19 0 -35 -4 -35 -10 0 -5 18 -10 39
-10 24 0 41 -5 44 -14 7 -17 -13 -26 -54 -26 -16 0 -29 -3 -29 -8 0 -15 -86
-52 -167 -72 -45 -11 -85 -20 -90 -20 -5 0 -7 16 -5 36 3 25 11 38 26 44 17 7
18 9 4 9 -10 1 -18 5 -18 11 0 5 8 14 18 19 16 10 16 10 0 11 -10 0 -18 4 -18
10 0 5 8 14 18 19 16 10 16 10 0 11 -12 0 -18 8 -18 25 0 16 6 25 15 25 21 0
19 20 -2 20 -16 1 -16 2 2 16 17 13 18 16 5 24 -12 8 -13 11 -1 19 9 6 10 11
2 15 -22 14 -10 26 32 33 28 4 51 16 69 35 23 25 58 43 89 47 4 1 14 -10 23
-24z m4996 15 c0 -5 -5 -10 -11 -10 -5 0 -7 5 -4 10 3 6 8 10 11 10 2 0 4 -4
4 -10z m4550 -10 c0 -5 -9 -10 -20 -10 -11 0 -20 5 -20 10 0 6 9 10 20 10 11
0 20 -4 20 -10z m-4475 -25 c28 0 31 -2 27 -30 -6 -54 -8 -56 -39 -40 -15 8
-44 15 -65 15 -38 0 -47 10 -40 47 4 21 8 22 46 16 22 -4 55 -8 71 -8z m-5962
-37 c-6 -47 -33 -99 -33 -64 0 16 -2 17 -17 5 -15 -13 -16 -11 -10 21 4 19 15
40 25 47 9 7 22 17 27 22 6 6 11 10 12 11 0 0 -1 -19 -4 -42z m245 19 c6 -5
12 -25 12 -44 0 -32 -2 -35 -22 -29 -13 3 -48 8 -78 11 -119 13 -116 11 -112
50 l4 35 92 -7 c50 -3 97 -10 104 -16z m6669 2 c-9 -6 -15 -14 -12 -20 4 -5
-1 -9 -11 -9 -13 0 -14 3 -5 13 6 8 8 17 4 20 -3 4 5 7 18 7 21 -1 22 -2 6
-11z m50 -5 c-3 -3 -12 -4 -19 -1 -8 3 -5 6 6 6 11 1 17 -2 13 -5z m1338 -24
c3 -5 1 -10 -4 -10 -6 0 -11 5 -11 10 0 6 2 10 4 10 3 0 8 -4 11 -10z m-5020
-25 c14 -14 25 -28 25 -31 0 -3 -16 -22 -35 -42 l-35 -37 0 33 c0 19 5 32 13
32 6 0 4 5 -5 11 -22 12 -24 59 -3 59 8 0 26 -11 40 -25z m2841 10 c18 -18 38
-20 28 -3 -4 7 -3 8 5 4 6 -4 9 -12 6 -17 -4 -5 -3 -9 2 -9 4 0 7 -20 5 -45
-4 -49 -8 -51 -47 -33 -16 7 -25 19 -25 35 0 12 -4 23 -10 23 -5 0 -10 5 -10
11 0 5 5 7 10 4 6 -4 10 5 10 19 0 30 5 32 26 11z m868 -8 c13 -5 17 -14 14
-32 -3 -13 -2 -26 1 -28 3 -2 -1 -2 -9 0 -8 3 -27 7 -42 10 -23 4 -28 11 -28
34 0 26 27 45 40 29 3 -4 13 -10 24 -13z m1906 -3 c0 -8 -6 -11 -15 -8 -8 4
-15 12 -15 20 0 8 6 11 15 8 8 -4 15 -12 15 -20z m-1993 -10 c2 -13 1 -15 -4
-4 -3 8 -11 19 -17 23 -7 6 -6 7 4 4 8 -2 16 -12 17 -23z m1466 -22 c9 -8 30
-15 46 -15 27 0 30 -4 40 -55 17 -85 17 -85 -31 -78 -132 20 -131 20 -125 -3
5 -19 1 -21 -35 -21 -33 0 -39 3 -34 16 3 9 9 26 12 39 5 20 11 23 47 20 23
-2 60 -7 82 -11 l40 -7 -23 25 c-13 14 -44 31 -69 38 -51 15 -58 25 -44 63 10
25 12 26 43 15 18 -6 41 -18 51 -26z m402 28 c3 -5 2 -10 -4 -10 -5 0 -13 5
-16 10 -3 6 -2 10 4 10 5 0 13 -4 16 -10z m-5755 -20 c0 -6 -9 -20 -20 -32
-10 -12 -17 -24 -15 -28 3 -4 -2 -13 -10 -20 -25 -21 -17 -30 25 -30 40 0 54
-15 24 -27 -8 -3 -13 -12 -10 -19 4 -10 -4 -14 -29 -14 -40 0 -42 5 -18 33 17
18 17 19 -12 15 -17 -1 -30 -8 -30 -15 0 -16 -5 -19 -43 -26 -29 -6 -31 -5
-23 11 6 9 31 40 56 67 24 28 45 58 45 67 0 15 15 24 48 27 6 0 12 -4 12 -9z
m3216 1 c-3 -5 1 -11 9 -15 10 -4 15 -20 15 -51 0 -36 -3 -45 -17 -45 -34 0
-47 18 -48 64 -1 38 1 46 19 49 12 2 22 5 24 6 2 0 1 -3 -2 -8z m-6155 -15 c5
3 9 0 9 -5 0 -6 17 -11 38 -10 30 0 33 2 17 9 -16 7 -17 9 -3 9 9 1 19 -3 22
-8 3 -5 26 -12 50 -15 45 -7 56 -19 56 -61 0 -23 -2 -23 -57 -18 -155 14 -158
15 -161 52 -4 36 7 75 15 53 3 -6 9 -10 14 -6z m10349 4 c12 -8 9 -10 -12 -10
-16 0 -28 5 -28 10 0 13 20 13 40 0z m-10390 -10 c0 -5 -4 -10 -10 -10 -5 0
-10 5 -10 10 0 6 5 10 10 10 6 0 10 -4 10 -10z m197 4 c-3 -3 -12 -4 -19 -1
-8 3 -5 6 6 6 11 1 17 -2 13 -5z m8573 -15 c0 -5 -9 -9 -20 -9 -19 0 -26 11
-14 23 8 8 34 -3 34 -14z m-8809 -31 c-6 -28 -12 -33 -45 -40 -22 -5 -41 -6
-43 -4 -2 2 0 19 5 37 7 29 14 35 43 40 45 7 48 5 40 -33z m436 -5 c-3 -10 -5
-2 -5 17 0 19 2 27 5 18 2 -10 2 -26 0 -35z m5439 37 c8 0 14 -7 14 -15 0 -15
-50 -22 -63 -9 -11 11 5 35 20 30 8 -3 21 -6 29 -6z m2869 -10 c-8 -13 45 -30
98 -30 58 0 54 6 48 -72 -1 -24 -18 -22 -60 6 -43 29 -93 46 -73 25 19 -20 14
-34 -5 -17 -10 9 -28 19 -40 22 -13 4 -23 15 -23 24 0 9 -3 26 -6 38 -5 18 -2
20 30 16 20 -2 34 -8 31 -12z m-2801 -5 c19 -14 19 -15 -7 -15 -17 0 -27 5
-27 15 0 19 9 19 34 0z m3836 5 c18 -6 7 -8 -42 -9 -39 -1 -68 3 -68 9 0 12
74 12 110 0z m-9740 -10 c0 -5 -2 -10 -4 -10 -3 0 -8 5 -11 10 -3 6 -1 10 4
10 6 0 11 -4 11 -10z m7230 -20 c0 -11 -4 -20 -9 -20 -5 0 -7 9 -4 20 3 11 7
20 9 20 2 0 4 -9 4 -20z m-1197 3 c-7 -2 -19 -2 -25 0 -7 3 -2 5 12 5 14 0 19
-2 13 -5z m400 -40 c-3 -27 -6 -54 -8 -60 -7 -21 -35 -2 -35 22 0 34 18 77 30
70 5 -3 10 -1 10 4 0 6 2 11 4 11 2 0 1 -21 -1 -47z m4021 -460 c6 -81 6 -83
-16 -83 -27 1 -56 21 -51 35 1 6 -11 19 -27 30 -30 20 -31 21 -28 100 l3 80
48 3 47 3 2 167 1 167 8 -210 c4 -115 10 -247 13 -292z m-4367 481 c-3 -3 -12
-4 -19 -1 -8 3 -5 6 6 6 11 1 17 -2 13 -5z m193 -13 c0 -11 -4 -23 -10 -26 -6
-4 -10 5 -10 19 0 14 5 26 10 26 6 0 10 -9 10 -19z m-6298 -16 c3 -13 1 -22
-3 -19 -9 5 -13 44 -5 44 2 0 6 -11 8 -25z m6148 21 c0 -2 -11 -11 -25 -20
-14 -9 -25 -13 -25 -8 0 5 10 14 23 20 27 13 27 13 27 8z m25 -16 c3 -5 1 -10
-4 -10 -6 0 -11 5 -11 10 0 6 2 10 4 10 3 0 8 -4 11 -10z m3599 4 c27 -10 18
-25 -11 -20 -16 2 -45 5 -65 5 -21 1 -38 6 -38 11 0 11 88 14 114 4z m-9687
-10 c-3 -3 -12 -4 -19 -1 -8 3 -5 6 6 6 11 1 17 -2 13 -5z m-137 -14 c0 -5 -4
-10 -10 -10 -5 0 -10 5 -10 10 0 6 5 10 10 10 6 0 10 -4 10 -10z m30 -74 c-7
-18 -14 -24 -26 -19 -13 5 -15 3 -9 -7 6 -10 4 -12 -9 -7 -10 4 -29 7 -42 7
-17 0 -24 6 -24 20 0 11 5 20 10 20 6 0 10 9 10 20 0 16 7 20 35 20 21 0 35 5
35 13 1 6 7 0 15 -15 11 -19 12 -34 5 -52z m230 59 c14 -2 28 -4 33 -4 4 -1 7
-10 7 -21 0 -17 -5 -18 -52 -13 -160 17 -163 18 -166 37 -4 18 1 19 74 11 44
-4 90 -9 104 -10z m207 -22 c-3 -10 -5 -4 -5 12 0 17 2 24 5 18 2 -7 2 -21 0
-30z m9989 27 c8 0 14 -4 14 -10 0 -5 -13 -10 -30 -10 -21 0 -30 5 -30 16 0
11 5 14 16 10 9 -3 22 -6 30 -6z m-598 -37 c2 -9 -8 -13 -35 -13 -56 0 -113
11 -113 22 0 14 143 5 148 -9z m-8184 -17 c17 -13 46 -27 64 -30 22 -5 32 -13
32 -27 0 -24 -31 -25 -66 -3 -26 18 -39 13 -39 -14 0 -21 -54 -30 -66 -10 -13
19 -11 25 10 45 14 13 17 23 11 33 -24 38 8 41 54 6z m-1434 -20 l65 -12 3
-40 c2 -31 -1 -41 -13 -41 -8 0 -15 4 -15 9 0 4 -3 7 -7 6 -17 -4 -169 15
-184 23 -10 5 -14 18 -11 42 l4 34 46 -5 c26 -2 76 -10 112 -16z m35 14 c3 -6
-1 -7 -9 -4 -18 7 -21 14 -7 14 6 0 13 -4 16 -10z m10195 -11 c0 -5 -16 -9
-35 -9 -34 0 -48 14 -23 22 18 6 58 -3 58 -13z m-3970 1 c0 -5 -2 -10 -4 -10
-3 0 -8 5 -11 10 -3 6 -1 10 4 10 6 0 11 -4 11 -10z m-245 -11 c-3 -3 7 -11
22 -18 23 -11 25 -15 19 -53 -4 -23 -8 -44 -10 -45 -2 -2 -15 1 -30 6 -22 9
-26 17 -26 50 0 22 -5 43 -10 46 -15 9 -5 21 19 21 11 0 18 -3 16 -7z m-6198
-21 c-3 -8 -6 -5 -6 6 -1 11 2 17 5 13 3 -3 4 -12 1 -19z m-32 -43 c0 -36 -2
-39 -32 -42 -26 -3 -35 1 -49 23 -17 25 -17 27 -1 39 9 6 15 14 13 16 -3 2 12
4 32 3 36 -1 37 -2 37 -39z m6192 13 c-3 -8 -6 -5 -6 6 -1 11 2 17 5 13 3 -3
4 -12 1 -19z m-33 -14 c3 -8 2 -12 -4 -9 -6 3 -10 10 -10 16 0 14 7 11 14 -7z
m-6088 -3 c7 -8 150 -32 202 -34 7 0 12 -15 12 -40 l0 -39 -67 8 c-38 5 -84 8
-105 9 -20 0 -34 3 -31 8 2 4 -3 7 -12 7 -14 0 -16 8 -13 40 2 22 -1 42 -7 44
-7 3 -6 5 1 5 5 1 14 -3 20 -8z m6388 -10 c17 -15 22 -86 7 -96 -5 -3 -21 0
-35 6 -18 9 -26 20 -26 38 0 64 18 81 54 52z m2399 12 c-7 -2 -21 -2 -30 0
-10 3 -4 5 12 5 17 0 24 -2 18 -5z m84 -5 c4 -7 6 -39 5 -70 -3 -46 0 -58 15
-67 23 -13 8 -14 -38 -1 -38 11 -77 54 -59 65 6 3 10 14 10 25 0 11 10 20 26
24 17 5 24 12 20 21 -7 18 10 20 21 3z m-2750 -20 c-3 -8 -6 -5 -6 6 -1 11 2
17 5 13 3 -3 4 -12 1 -19z m-5209 -12 c-10 -7 -18 -18 -18 -23 0 -6 -7 -16
-15 -23 -17 -14 -10 -34 8 -23 7 4 6 0 -2 -10 -7 -9 -21 -17 -30 -17 -9 0 -26
-7 -37 -14 -12 -8 -43 -20 -70 -27 -27 -7 -60 -20 -74 -30 -14 -10 -36 -21
-50 -24 -22 -5 -27 -1 -37 26 -15 38 -3 51 63 68 23 6 44 18 48 26 3 8 18 15
33 15 16 0 46 12 67 26 40 28 77 42 111 43 19 0 19 0 3 -13z m-968 -16 c0 -5
-5 -10 -11 -10 -5 0 -7 5 -4 10 3 6 8 10 11 10 2 0 4 -4 4 -10z m6265 -28 c3
-7 1 -11 -4 -7 -5 3 -11 2 -13 -3 -1 -4 -10 0 -19 9 -16 16 -15 17 7 15 13 0
26 -7 29 -14z m-475 -46 c0 -3 -4 -8 -10 -11 -5 -3 -10 -1 -10 4 0 6 5 11 10
11 6 0 10 -2 10 -4z m807 -2 c-3 -3 -12 -4 -19 -1 -8 3 -5 6 6 6 11 1 17 -2
13 -5z m3275 -2 c-7 -2 -10 -7 -7 -12 7 -12 -77 -22 -89 -10 -5 5 -19 11 -30
12 -29 2 61 15 104 15 19 0 29 -2 22 -5z m288 -42 c0 -57 4 -56 -99 -31 -76
18 -99 35 -88 65 5 13 22 16 97 16 l90 0 0 -50z m-4820 36 c0 -3 -4 -8 -10
-11 -5 -3 -10 -1 -10 4 0 6 5 11 10 11 6 0 10 -2 10 -4z m597 -2 c-3 -3 -12
-4 -19 -1 -8 3 -5 6 6 6 11 1 17 -2 13 -5z m107 -9 c-4 -8 -8 -15 -10 -15 -2
0 -4 7 -4 15 0 8 4 15 10 15 5 0 7 -7 4 -15z m421 -14 c-6 -5 -25 10 -25 20 0
5 6 4 14 -3 8 -7 12 -15 11 -17z m-6629 -1 c0 -12 -4 -16 -9 -11 -5 5 -6 14
-3 20 10 15 12 14 12 -9z m364 16 c0 -2 -13 -6 -29 -8 -17 -2 -28 -1 -25 4 5
8 54 12 54 4z m9274 -5 c15 -6 19 -20 22 -80 4 -64 2 -72 -12 -67 -8 3 -22 6
-29 6 -8 0 -30 14 -50 31 -30 26 -45 32 -98 35 -109 6 -127 14 -127 62 0 22 1
22 138 21 75 0 145 -4 156 -8z m-8968 -50 c-3 -5 1 -11 9 -15 22 -8 18 -23 -7
-29 -26 -7 -25 -9 -33 26 -6 23 -4 27 15 27 11 0 19 -4 16 -9z m-349 -17 c-3
-3 -12 -4 -19 -1 -8 3 -5 6 6 6 11 1 17 -2 13 -5z m263 -25 c0 -5 -13 -9 -30
-9 -35 0 -41 17 -7 22 26 5 37 1 37 -13z m-170 2 c0 -5 -15 -11 -32 -14 -123
-21 -185 -34 -197 -41 -8 -5 -28 -9 -45 -8 -17 1 -53 -5 -80 -13 -27 -8 -61
-14 -75 -14 -22 1 30 18 142 45 20 5 27 13 27 30 l0 24 130 0 c72 0 130 -4
130 -9z m-435 -21 c-3 -5 -10 -10 -16 -10 -5 0 -9 5 -9 10 0 6 7 10 16 10 8 0
12 -4 9 -10z m10352 -114 c-2 -5 -25 -10 -53 -10 -43 -1 -49 -3 -49 -23 0 -11
-2 -24 -5 -27 -3 -3 -45 -6 -92 -7 -65 -1 -93 -6 -115 -20 -30 -20 -113 -26
-113 -8 0 6 8 8 18 5 10 -3 35 3 57 14 29 15 59 20 117 20 77 0 111 14 63 26
-26 6 -34 29 -12 38 21 8 187 2 184 -8z m-747 -16 c0 -5 7 -10 16 -10 8 0 13
-4 9 -9 -3 -6 -18 -6 -38 0 -17 6 -49 11 -69 13 -65 3 -54 16 15 16 38 0 67
-4 67 -10z m-7790 -10 c23 -14 7 -21 -61 -27 -44 -4 -70 -12 -84 -26 -14 -14
-16 -21 -7 -24 19 -7 14 -23 -7 -23 -10 0 -24 -7 -32 -16 -10 -13 -10 -17 2
-24 12 -8 12 -12 -2 -26 -14 -14 -30 -15 -98 -9 -45 4 -81 11 -81 16 0 5 21
14 47 21 35 8 42 13 28 18 -14 5 -15 9 -6 14 7 5 10 13 8 20 -10 25 30 52 103
73 81 22 166 28 190 13z m-805 -23 c-10 -23 33 -39 71 -27 56 19 154 -7 154
-40 0 -4 -99 -7 -220 -7 -121 1 -220 4 -220 7 0 13 25 30 45 31 11 0 49 11 85
24 77 27 91 29 85 12z m8721 -294 c6 -21 9 -60 5 -88 -7 -57 -10 -58 -115 -27
-51 15 -61 23 -82 60 l-24 42 48 24 c33 18 64 25 102 26 l55 0 11 -37z m-8916
-127 c0 -2 -7 -7 -16 -10 -8 -3 -12 -2 -9 4 6 10 25 14 25 6z m1335 -136 c-3
-5 -12 -10 -18 -10 -7 0 -6 4 3 10 19 12 23 12 15 0z m886 -37 c13 -16 12 -17
-3 -4 -10 7 -18 15 -18 17 0 8 8 3 21 -13z m49 3 c0 -2 -8 -10 -17 -17 -16
-13 -17 -12 -4 4 13 16 21 21 21 13z m-3877 -53 c-7 -2 -21 -2 -30 0 -10 3 -4
5 12 5 17 0 24 -2 18 -5z m1330 0 c-7 -2 -19 -2 -25 0 -7 3 -2 5 12 5 14 0 19
-2 13 -5z m94 1 c-3 -3 -12 -4 -19 -1 -8 3 -5 6 6 6 11 1 17 -2 13 -5z m2333
-4 c8 -5 11 -10 5 -10 -5 0 -17 5 -25 10 -8 5 -10 10 -5 10 6 0 17 -5 25 -10z
m70 0 c0 -5 -5 -10 -11 -10 -5 0 -7 5 -4 10 3 6 8 10 11 10 2 0 4 -4 4 -10z
m-2424 -18 c-10 -2 -22 0 -28 6 -6 6 0 7 19 4 21 -5 23 -7 9 -10z m2330 3 c18
-9 23 -15 12 -15 -24 0 -48 11 -48 21 0 12 3 12 36 -6z m-3802 -30 c-15 -14
-39 -25 -55 -25 -15 0 -29 -5 -31 -11 -2 -7 -8 -6 -16 3 -10 13 -7 15 20 16
17 0 43 10 57 21 37 29 57 26 25 -4z m1403 19 c-3 -3 -12 -4 -19 -1 -8 3 -5 6
6 6 11 1 17 -2 13 -5z m2473 -14 c0 -5 -5 -10 -11 -10 -5 0 -7 5 -4 10 3 6 8
10 11 10 2 0 4 -4 4 -10z m44 -32 c-3 -5 -10 -8 -15 -8 -6 0 -7 5 -4 10 4 7
-3 8 -22 4 l-28 -7 25 20 c22 19 25 19 36 4 7 -8 10 -19 8 -23z m-114 22 c0
-5 -4 -10 -10 -10 -5 0 -10 5 -10 10 0 6 5 10 10 10 6 0 10 -4 10 -10z m-2626
-10 c26 -10 36 -30 14 -30 -6 0 -8 3 -4 7 3 4 -6 12 -21 19 -34 15 -25 18 11
4z m-37 -8 c9 -6 7 -11 -7 -20 -12 -7 -20 -8 -20 -2 0 5 6 10 13 10 8 0 7 4
-3 10 -8 5 -10 10 -5 10 6 0 15 -4 22 -8z"/>
<path d="M2175 3610 c-19 -8 -19 -9 2 -9 12 -1 25 4 28 9 7 12 -2 12 -30 0z"/>
<path d="M2175 3570 c-18 -8 -17 -9 8 -9 15 -1 27 4 27 9 0 12 -8 12 -35 0z"/>
<path d="M2180 3530 c-13 -8 -13 -10 2 -10 9 0 20 5 23 10 8 13 -5 13 -25 0z"/>
<path d="M2178 3473 c6 -2 18 -2 25 0 6 3 1 5 -13 5 -14 0 -19 -2 -12 -5z"/>
<path d="M2178 3433 c6 -2 18 -2 25 0 6 3 1 5 -13 5 -14 0 -19 -2 -12 -5z"/>
<path d="M2175 3400 c-18 -8 -17 -9 8 -9 16 -1 26 3 22 9 -3 6 -7 10 -8 9 -1
0 -11 -4 -22 -9z"/>
<path d="M2170 3330 c-13 -9 -13 -10 0 -10 8 0 22 5 30 10 13 9 13 10 0 10 -8
0 -22 -5 -30 -10z"/>
<path d="M5097 2693 c-9 -19 0 -48 16 -51 13 -3 17 3 17 27 0 20 -5 31 -14 31
-8 0 -17 -3 -19 -7z"/>
<path d="M5097 2583 c-15 -15 -7 -43 13 -43 15 0 20 7 20 25 0 24 -18 34 -33
18z"/>
<path d="M2275 2080 c-8 -13 5 -13 25 0 13 8 13 10 -2 10 -9 0 -20 -4 -23 -10z"/>
<path d="M2270 2041 c0 -5 9 -7 20 -4 11 3 20 7 20 9 0 2 -9 4 -20 4 -11 0
-20 -4 -20 -9z"/>
<path d="M2265 2000 c-7 -12 2 -12 30 0 19 8 19 9 -2 9 -12 1 -25 -3 -28 -9z"/>
<path d="M2273 1933 c9 -2 23 -2 30 0 6 3 -1 5 -18 5 -16 0 -22 -2 -12 -5z"/>
<path d="M2280 1900 l-25 -8 28 -1 c15 -1 27 4 27 9 0 6 -1 10 -2 9 -2 -1 -14
-5 -28 -9z"/>
<path d="M2285 1860 c-19 -8 -19 -9 3 -9 12 -1 22 4 22 9 0 6 -1 10 -2 9 -2 0
-12 -4 -23 -9z"/>
<path d="M5336 5074 c-11 -29 -6 -44 14 -44 16 0 20 7 20 30 0 32 -23 42 -34
14z"/>
<path d="M5390 5059 c0 -38 24 -35 28 4 2 19 -1 27 -12 27 -11 0 -16 -10 -16
-31z"/>
<path d="M5102 5071 c-19 -11 -11 -45 11 -49 13 -3 17 3 17 27 0 32 -6 37 -28
22z"/>
<path d="M5150 5050 c0 -20 5 -30 15 -30 10 0 15 10 15 30 0 20 -5 30 -15 30
-10 0 -15 -10 -15 -30z"/>
<path d="M5200 5056 c0 -20 5 -26 21 -26 15 0 20 5 17 22 -5 34 -38 37 -38 4z"/>
<path d="M5280 5054 c0 -33 33 -30 38 4 3 17 -2 22 -17 22 -16 0 -21 -6 -21
-26z"/>
<path d="M4933 5063 c-19 -7 -16 -53 2 -53 10 0 15 10 15 30 0 17 -1 30 -2 29
-2 0 -9 -3 -15 -6z"/>
<path d="M4977 5063 c-16 -15 -7 -49 13 -50 16 -1 20 4 20 28 0 27 -17 39 -33
22z"/>
<path d="M5024 5055 c-7 -18 3 -35 22 -35 8 0 14 10 14 25 0 27 -27 35 -36 10z"/>
<path d="M5390 4960 c0 -20 5 -30 15 -30 10 0 15 10 15 30 0 20 -5 30 -15 30
-10 0 -15 -10 -15 -30z"/>
<path d="M5105 4972 c-6 -4 -11 -17 -12 -29 -2 -17 2 -23 17 -23 15 0 20 7 20
24 0 27 -11 39 -25 28z"/>
<path d="M5157 4973 c-13 -13 -7 -53 8 -53 10 0 15 10 15 30 0 29 -9 38 -23
23z"/>
<path d="M5200 4951 c0 -32 6 -37 28 -22 19 11 11 45 -11 49 -13 3 -17 -3 -17
-27z"/>
<path d="M5280 4955 c0 -17 5 -25 18 -25 12 0 18 8 20 25 1 19 -3 25 -18 25
-15 0 -20 -7 -20 -25z"/>
<path d="M5336 4964 c-8 -20 1 -34 20 -34 8 0 14 10 14 25 0 28 -24 34 -34 9z"/>
<path d="M4981 4961 c-18 -11 -10 -45 12 -49 12 -3 17 3 17 22 0 29 -10 38
-29 27z"/>
<path d="M5024 4945 c-2 -18 3 -25 17 -25 14 0 19 7 19 25 0 35 -34 35 -36 0z"/>
<path d="M4920 4935 c0 -16 6 -25 15 -25 9 0 15 9 15 25 0 16 -6 25 -15 25 -9
0 -15 -9 -15 -25z"/>
<path d="M5293 4873 c-7 -3 -13 -16 -13 -29 0 -17 6 -24 20 -24 12 0 20 7 20
18 0 24 -13 40 -27 35z"/>
<path d="M5336 4865 c-8 -21 3 -45 20 -45 9 0 14 11 14 30 0 32 -23 42 -34 15z"/>
<path d="M5390 4855 c0 -16 6 -25 15 -25 9 0 15 9 15 25 0 16 -6 25 -15 25 -9
0 -15 -9 -15 -25z"/>
<path d="M5100 4855 c-15 -18 -6 -45 15 -45 10 0 15 10 15 30 0 33 -11 38 -30
15z"/>
<path d="M5150 4840 c0 -20 5 -30 15 -30 10 0 15 10 15 30 0 20 -5 30 -15 30
-10 0 -15 -10 -15 -30z"/>
<path d="M5200 4845 c0 -14 6 -25 13 -25 20 0 25 9 20 31 -8 28 -33 24 -33 -6z"/>
<path d="M4927 4853 c-13 -13 -7 -53 8 -53 10 0 15 10 15 30 0 29 -9 38 -23
23z"/>
<path d="M4977 4853 c-4 -3 -7 -17 -7 -30 0 -16 6 -23 20 -23 16 0 20 7 20 30
0 28 -17 40 -33 23z"/>
<path d="M5024 4845 c-7 -18 3 -35 22 -35 8 0 14 10 14 25 0 27 -27 35 -36 10z"/>
<path d="M5390 4540 c0 -22 4 -28 15 -24 8 4 15 17 15 30 0 15 -6 24 -15 24
-10 0 -15 -10 -15 -30z"/>
<path d="M4976 4534 c-11 -29 -6 -44 14 -44 16 0 20 7 20 30 0 32 -23 42 -34
14z"/>
<path d="M5025 4525 c1 -14 5 -28 8 -31 11 -11 27 8 27 32 0 17 -6 24 -19 24
-15 0 -19 -6 -16 -25z"/>
<path d="M4920 4515 c0 -16 6 -25 15 -25 9 0 15 9 15 25 0 16 -6 25 -15 25 -9
0 -15 -9 -15 -25z"/>
<path d="M5027 4443 c-9 -19 0 -48 16 -51 13 -3 17 3 17 27 0 20 -5 31 -14 31
-8 0 -17 -3 -19 -7z"/>
<path d="M4920 4416 c0 -13 7 -26 15 -30 11 -4 15 2 15 24 0 20 -5 30 -15 30
-9 0 -15 -9 -15 -24z"/>
<path d="M4970 4415 c0 -18 5 -25 20 -25 15 0 20 7 20 25 0 18 -5 25 -20 25
-15 0 -20 -7 -20 -25z"/>
<path d="M2273 4333 c9 -2 23 -2 30 0 6 3 -1 5 -18 5 -16 0 -22 -2 -12 -5z"/>
<path d="M4933 4333 c-19 -7 -16 -53 2 -53 10 0 15 10 15 30 0 17 -1 30 -2 29
-2 0 -9 -3 -15 -6z"/>
<path d="M4974 4326 c-9 -22 2 -46 21 -46 12 0 15 8 13 27 -3 30 -25 42 -34
19z"/>
<path d="M5026 4325 c-7 -20 4 -47 18 -42 17 6 20 57 3 57 -8 0 -17 -7 -21
-15z"/>
<path d="M2165 4320 c-7 -12 2 -12 30 0 19 8 19 9 -2 9 -12 1 -25 -3 -28 -9z"/>
<path d="M2280 4300 l-25 -8 28 -1 c15 -1 27 4 27 9 0 6 -1 10 -2 9 -2 -1 -14
-5 -28 -9z"/>
<path d="M2170 4281 c0 -5 9 -7 20 -4 11 3 20 7 20 9 0 2 -9 4 -20 4 -11 0
-20 -4 -20 -9z"/>
<path d="M2280 4260 l-25 -8 28 -1 c15 -1 27 4 27 9 0 6 -1 10 -2 9 -2 -1 -14
-5 -28 -9z"/>
<path d="M2165 4240 c-7 -12 2 -12 30 0 19 8 19 9 -2 9 -12 1 -25 -3 -28 -9z"/>
<path d="M5390 4205 c0 -16 6 -25 15 -25 9 0 15 9 15 25 0 16 -6 25 -15 25 -9
0 -15 -9 -15 -25z"/>
<path d="M5031 4211 c-18 -11 -10 -45 12 -49 12 -3 17 3 17 22 0 29 -10 38
-29 27z"/>
<path d="M4920 4180 c0 -20 5 -30 15 -30 10 0 15 10 15 30 0 20 -5 30 -15 30
-10 0 -15 -10 -15 -30z"/>
<path d="M4974 4195 c-7 -18 3 -35 22 -35 8 0 14 10 14 25 0 27 -27 35 -36 10z"/>
<path d="M2268 4193 c6 -2 18 -2 25 0 6 3 1 5 -13 5 -14 0 -19 -2 -12 -5z"/>
<path d="M2178 4183 c6 -2 18 -2 25 0 6 3 1 5 -13 5 -14 0 -19 -2 -12 -5z"/>
<path d="M2275 4160 c-18 -8 -17 -9 8 -9 15 -1 27 4 27 9 0 12 -8 12 -35 0z"/>
<path d="M2170 4141 c0 -5 9 -7 20 -4 11 3 20 7 20 9 0 2 -9 4 -20 4 -11 0
-20 -4 -20 -9z"/>
<path d="M2280 4120 l-25 -8 28 -1 c15 -1 27 4 27 9 0 6 -1 10 -2 9 -2 -1 -14
-5 -28 -9z"/>
<path d="M2170 4101 c0 -5 9 -7 20 -4 11 3 20 7 20 9 0 2 -9 4 -20 4 -11 0
-20 -4 -20 -9z"/>
<path d="M2273 4013 c9 -2 23 -2 30 0 6 3 -1 5 -18 5 -16 0 -22 -2 -12 -5z"/>
<path d="M2170 4000 c-18 -12 -2 -12 25 0 13 6 15 9 5 9 -8 0 -22 -4 -30 -9z"/>
<path d="M2275 3980 c-18 -8 -17 -9 8 -9 15 -1 27 4 27 9 0 12 -8 12 -35 0z"/>
<path d="M2178 3963 c6 -2 18 -2 25 0 6 3 1 5 -13 5 -14 0 -19 -2 -12 -5z"/>
<path d="M2280 3940 l-25 -8 28 -1 c15 -1 27 4 27 9 0 6 -1 10 -2 9 -2 -1 -14
-5 -28 -9z"/>
<path d="M2268 3883 c6 -2 18 -2 25 0 6 3 1 5 -13 5 -14 0 -19 -2 -12 -5z"/>
<path d="M6378 1533 c-10 -2 -18 -11 -18 -18 0 -7 -4 -15 -10 -17 -5 -1 -19
-34 -29 -71 -22 -77 -18 -82 58 -78 18 1 21 4 13 14 -13 15 0 39 19 37 48 -7
61 6 33 35 -9 9 -14 24 -11 36 7 27 -9 69 -25 68 -7 -1 -21 -3 -30 -6z"/>
<path d="M6501 1332 c-4 -7 -36 -15 -72 -18 -52 -5 -67 -3 -78 10 -16 20 -50
13 -99 -21 -19 -12 -43 -23 -54 -23 -11 0 -16 -5 -13 -11 12 -19 -4 -54 -32
-66 -15 -7 -45 -13 -68 -13 -23 0 -46 -5 -53 -12 -7 -7 -30 -11 -52 -10 -22 2
-77 -9 -123 -23 -119 -37 -111 -33 -97 -50 14 -17 57 -20 62 -4 3 9 101 27
178 34 55 4 126 18 137 27 7 5 17 7 23 3 15 -9 50 4 50 20 0 7 19 20 42 27 23
8 44 20 46 26 2 8 -2 10 -13 6 -13 -5 -16 -2 -13 12 2 14 13 20 43 21 64 4
130 15 135 23 10 15 83 40 119 41 20 0 45 4 56 9 14 7 -1 9 -48 7 -43 -1 -71
-7 -76 -15z"/>
<path d="M11580 1030 l-25 -7 27 -8 c15 -4 31 -4 37 -1 17 11 63 -5 57 -20 -4
-10 5 -14 34 -14 21 0 42 -4 45 -10 3 -5 21 -10 38 -9 l32 0 -30 14 c-66 29
-166 65 -178 64 -6 -1 -23 -4 -37 -9z"/>
<path d="M8230 991 c-21 -7 -19 -8 20 -13 50 -5 80 0 80 13 0 11 -64 10 -100
0z"/>
<path d="M8366 972 c-4 -7 121 -29 208 -36 23 -2 32 -9 39 -30 l9 -28 77 7
c42 4 78 9 81 12 9 8 -24 21 -56 21 -18 0 -47 7 -65 16 -17 9 -67 19 -110 22
-44 4 -79 11 -79 15 0 11 -97 12 -104 1z"/>
<path d="M11482 971 c-18 -11 31 -21 112 -22 78 -2 122 -12 118 -28 -3 -17 70
-11 76 7 2 6 -3 12 -12 12 -8 0 -35 6 -58 14 -52 17 -218 29 -236 17z"/>
<path d="M11415 960 c-18 -8 -17 -9 8 -9 16 -1 26 3 22 9 -3 6 -7 10 -8 9 -1
0 -11 -4 -22 -9z"/>
<path d="M11860 954 c0 -3 14 -10 30 -15 35 -13 40 -29 8 -29 -12 0 -19 -3
-16 -6 3 -3 109 -7 234 -9 247 -3 268 8 36 19 -112 5 -154 11 -187 26 -41 19
-105 27 -105 14z"/>
<path d="M11593 913 c9 -2 23 -2 30 0 6 3 -1 5 -18 5 -16 0 -22 -2 -12 -5z"/>
<path d="M5237 883 c-9 -2 -15 -9 -12 -14 4 -5 1 -9 -4 -9 -6 0 -11 -4 -11
-10 0 -5 7 -10 16 -10 9 0 14 -5 12 -11 -4 -12 -72 -39 -99 -39 -9 0 -22 -7
-29 -15 -15 -18 -3 -19 37 -4 15 6 28 10 28 10 0 0 17 4 37 8 26 6 36 6 31 -2
-4 -6 0 -8 8 -5 8 3 23 2 34 -2 19 -7 18 -8 -7 -18 -36 -15 -43 -29 -12 -29
14 0 21 3 15 6 -6 4 19 11 54 17 52 7 65 7 65 -4 0 -9 16 -12 60 -10 56 2 58
3 43 20 -18 20 -49 25 -37 6 4 -7 3 -8 -5 -4 -6 4 -18 4 -24 -1 -7 -4 -5 0 5
9 19 17 20 38 3 50 -17 12 -37 9 -29 -4 4 -7 -3 -3 -14 9 -12 12 -30 24 -41
28 -12 3 -20 12 -18 18 2 12 -72 20 -106 10z"/>
<path d="M12395 874 c28 -8 59 -13 70 -11 28 4 -51 27 -90 26 -25 -1 -22 -3
20 -15z"/>
<path d="M12504 846 c11 -9 31 -16 45 -15 24 1 24 2 -5 8 -17 4 -37 11 -45 15
-8 4 -5 0 5 -8z"/>
<path d="M3197 821 c-17 -6 -16 -8 7 -19 16 -7 26 -8 26 -2 0 6 -5 10 -11 10
-5 0 -7 5 -4 10 7 11 7 11 -18 1z"/>
<path d="M4045 816 c-17 -12 -18 -15 -3 -30 9 -9 28 -16 42 -16 27 0 36 15 14
23 -10 3 -10 7 1 20 12 15 11 17 -11 17 -13 0 -33 -6 -43 -14z"/>
<path d="M12000 794 c-36 -19 -73 -33 -83 -30 -11 3 -16 0 -14 -7 3 -7 10 -11
16 -9 6 1 10 -4 9 -10 -2 -7 4 -13 12 -13 8 0 22 -8 31 -17 9 -10 19 -15 23
-11 3 3 6 1 6 -6 0 -8 -11 -10 -34 -6 -22 5 -36 3 -41 -5 -5 -9 -1 -10 15 -5
l23 7 -24 -24 c-13 -14 -31 -23 -39 -20 -19 6 29 -41 57 -57 27 -14 33 -14 33
-1 0 6 -7 10 -16 10 -17 0 -44 23 -44 38 0 5 11 17 25 26 27 17 32 8 15 -24
-8 -16 -7 -18 4 -14 9 3 17 -3 21 -15 3 -12 11 -21 16 -21 13 0 11 18 -3 23
-24 8 -3 15 30 10 22 -4 32 -10 28 -19 -10 -26 12 -24 117 12 10 4 16 13 13
20 -6 17 49 20 59 4 3 -5 1 -10 -4 -10 -6 0 -11 -7 -11 -15 0 -8 5 -15 10 -15
6 0 10 5 10 10 0 14 53 13 67 -1 8 -8 153 -10 522 -7 281 2 512 1 514 -2 2 -3
2 1 1 8 -4 15 1 15 28 1 22 -12 68 -4 68 11 0 9 -57 27 -90 29 -38 2 -248 57
-264 70 -6 4 -38 12 -71 15 -91 10 -293 27 -352 29 -28 1 -49 5 -46 10 2 4 -5
7 -16 7 -15 0 -19 4 -14 17 4 11 3 14 -5 9 -7 -4 -12 -2 -12 3 0 12 -56 15
-63 4 -3 -5 -63 -8 -135 -8 -94 0 -133 4 -145 14 -12 9 -28 11 -54 6 -44 -9
-74 -7 -87 6 -17 15 -39 10 -106 -27z m-10 -28 c0 -2 -7 -7 -16 -10 -8 -3 -12
-2 -9 4 6 10 25 14 25 6z m590 -6 c0 -5 -2 -10 -4 -10 -3 0 -8 5 -11 10 -3 6
-1 10 4 10 6 0 11 -4 11 -10z m203 -77 c-7 -2 -19 -2 -25 0 -7 3 -2 5 12 5 14
0 19 -2 13 -5z m380 -10 c-7 -2 -19 -2 -25 0 -7 3 -2 5 12 5 14 0 19 -2 13 -5z
m52 -21 c-3 -3 -11 0 -18 7 -9 10 -8 11 6 5 10 -3 15 -9 12 -12z m-655 -2 c0
-5 -9 -10 -20 -10 -11 0 -20 5 -20 10 0 6 9 10 20 10 11 0 20 -4 20 -10z m625
-1 c2 -3 -25 -5 -61 -5 -37 0 -59 3 -52 8 13 8 104 5 113 -3z m-1072 -8 c30
-1 46 -5 42 -11 -4 -6 -10 -8 -14 -6 -4 3 -21 2 -37 -3 -31 -8 -87 5 -79 19 3
5 13 7 23 5 9 -2 39 -4 65 -4z m345 2 c-10 -2 -28 -2 -40 0 -13 2 -5 4 17 4
22 1 32 -1 23 -4z m799 1 c-3 -3 -12 -4 -19 -1 -8 3 -5 6 6 6 11 1 17 -2 13
-5z m148 -24 c3 -5 -1 -10 -9 -10 -8 0 -18 5 -21 10 -3 6 1 10 9 10 8 0 18 -4
21 -10z"/>
<path d="M5030 810 c0 -12 8 -12 35 0 18 8 17 9 -7 9 -16 1 -28 -3 -28 -9z"/>
<path d="M3164 748 c-4 -6 -3 -8 4 -5 5 4 21 3 34 -2 13 -6 16 -10 8 -10 -22
-1 -119 -101 -98 -101 9 0 20 9 23 20 7 23 21 26 28 6 4 -10 1 -13 -9 -9 -7 3
-14 0 -14 -6 0 -6 6 -11 13 -11 18 0 68 35 61 43 -4 3 6 5 22 4 25 -2 29 1 26
23 -1 14 -7 27 -12 28 -6 2 -10 10 -10 18 0 17 -65 20 -76 2z m60 -49 c-3 -6
-12 -8 -19 -5 -7 2 -19 -1 -26 -7 -11 -10 -11 -9 0 5 7 10 17 15 22 12 5 -3 9
0 9 6 0 6 5 8 10 5 6 -4 8 -11 4 -16z m-30 -34 c-4 -8 -11 -15 -16 -15 -6 0
-5 6 2 15 7 8 14 15 16 15 2 0 1 -7 -2 -15z"/>
<path d="M5020 725 c-25 -8 -61 -15 -80 -15 -35 0 -138 -28 -110 -29 30 -2
-13 -21 -45 -20 -30 1 -30 1 -5 10 19 6 12 8 -28 5 -52 -3 -79 -15 -54 -23 6
-3 12 -13 12 -23 0 -15 11 -18 91 -19 49 -1 96 -4 104 -7 7 -3 16 -1 19 4 8
14 -78 25 -126 17 -29 -5 -39 -4 -34 4 4 6 12 8 18 5 6 -4 13 -1 17 5 6 9 19
9 52 2 24 -6 59 -11 77 -11 19 0 35 -6 38 -14 4 -10 12 -12 26 -7 11 4 18 11
16 15 -3 8 40 35 57 35 6 0 -1 -6 -15 -14 -17 -10 -20 -14 -9 -15 9 0 24 9 34
20 10 11 22 17 28 13 5 -3 7 -1 3 5 -3 6 -2 13 3 17 6 3 7 13 4 22 -4 10 -2
14 4 10 5 -3 23 -2 39 3 l29 8 -31 1 c-17 1 -44 3 -60 6 -16 2 -49 -2 -74 -10z
m50 -15 c0 -5 -5 -10 -11 -10 -5 0 -7 5 -4 10 3 6 8 10 11 10 2 0 4 -4 4 -10z
m-137 -17 c-7 -2 -19 -2 -25 0 -7 3 -2 5 12 5 14 0 19 -2 13 -5z m167 3 c0 -2
-7 -7 -16 -10 -8 -3 -12 -2 -9 4 6 10 25 14 25 6z m-197 -17 c7 0 1 -5 -12
-10 -13 -5 -26 -7 -29 -4 -3 3 1 5 9 5 12 0 11 2 -1 11 -12 9 -12 10 3 5 10
-3 24 -6 30 -7z m72 1 c-3 -5 -14 -10 -23 -10 -15 0 -15 2 -2 10 20 13 33 13
25 0z m26 -33 c-6 -8 -7 -17 -3 -22 4 -4 0 -6 -8 -3 -25 8 -25 38 0 38 18 0
20 -3 11 -13z m-251 -7 c-8 -5 -19 -10 -25 -10 -5 0 -3 5 5 10 8 5 20 10 25
10 6 0 3 -5 -5 -10z"/>
<path d="M5483 676 c-13 -6 -22 -15 -22 -21 3 -24 -2 -35 -16 -35 -8 0 -15 -7
-15 -15 0 -8 5 -15 11 -15 5 0 7 5 3 11 -4 8 3 10 22 7 16 -3 23 -3 17 -1 -15
5 -15 10 -3 38 6 14 9 15 10 5 1 -12 3 -12 8 1 6 15 9 15 20 3 11 -12 9 -16
-9 -22 -21 -8 -21 -9 -3 -17 10 -4 31 -7 46 -6 14 1 29 -3 33 -9 8 -13 43 -4
68 18 9 8 17 10 17 5 0 -6 11 -13 25 -15 14 -3 25 -1 25 6 0 6 4 5 9 -3 6 -8
16 -11 31 -6 16 5 20 4 15 -5 -5 -9 -2 -10 14 -5 12 4 21 2 21 -4 0 -6 7 -11
16 -11 14 0 14 2 0 15 -8 8 -23 15 -33 15 -14 0 -15 2 -5 9 11 6 10 10 -4 15
-9 3 -19 4 -22 1 -3 -3 1 -5 9 -5 11 0 11 -2 -1 -10 -21 -13 -30 -12 -25 3 3
7 -4 12 -20 12 -14 0 -25 -3 -25 -7 0 -5 -5 -8 -11 -8 -5 0 -7 4 -4 10 3 5
-12 9 -40 7 -40 -1 -44 -4 -39 -22 6 -19 6 -19 -8 -1 -12 15 -22 18 -48 13
-29 -6 -31 -5 -19 9 7 9 14 25 16 35 3 22 -26 24 -64 5z m152 -56 c3 -5 1 -10
-4 -10 -6 0 -11 5 -11 10 0 6 2 10 4 10 3 0 8 -4 11 -10z"/>
<path d="M5158 662 c-25 -5 -22 -17 7 -30 35 -16 40 -15 24 6 -13 15 -12 16 3
3 10 -7 15 -17 12 -22 -3 -5 1 -9 9 -9 8 0 14 -7 13 -16 0 -9 5 -19 12 -21 8
-3 10 1 6 11 -5 12 -2 15 10 10 12 -5 15 -2 10 10 -5 13 1 16 27 17 57 2 82
-2 106 -18 13 -8 23 -11 23 -6 0 11 -109 62 -136 63 -11 0 -39 2 -64 3 -25 2
-53 1 -62 -1z m98 -18 c19 -15 19 -15 -1 -6 -11 5 -27 12 -35 15 -13 5 -13 6
1 6 8 1 24 -6 35 -15z m-6 -26 c0 -13 -23 -5 -28 10 -2 7 2 10 12 6 9 -3 16
-11 16 -16z"/>
<path d="M5340 660 c0 -12 17 -12 45 0 17 7 15 9 -12 9 -18 1 -33 -3 -33 -9z"/>
<path d="M11471 651 c-8 -5 -20 -7 -28 -4 -7 3 -13 0 -13 -6 0 -16 46 -13 60
4 14 17 3 20 -19 6z"/>
<path d="M5926 629 c-10 -6 -27 -20 -37 -30 -18 -18 -18 -19 4 -16 13 1 21 -3
20 -10 -2 -7 2 -13 7 -13 6 0 10 7 10 15 0 8 7 15 15 15 18 0 20 16 3 24 -7 3
1 3 17 0 29 -5 29 -5 11 10 -23 19 -25 19 -50 5z m4 -29 c0 -5 -4 -10 -10 -10
-5 0 -10 5 -10 10 0 6 5 10 10 10 6 0 10 -4 10 -10z"/>
<path d="M11513 633 c9 -2 25 -2 35 0 9 3 1 5 -18 5 -19 0 -27 -2 -17 -5z"/>
<path d="M5145 620 c27 -12 43 -12 25 0 -8 5 -22 9 -30 9 -10 0 -8 -3 5 -9z"/>
<path d="M5123 606 c18 -14 24 -32 7 -21 -5 3 -10 1 -10 -4 0 -6 7 -11 15 -11
8 0 15 5 15 10 0 6 8 10 17 10 24 0 11 9 -28 20 -29 8 -32 8 -16 -4z"/>
<path d="M5858 613 c7 -3 16 -2 19 1 4 3 -2 6 -13 5 -11 0 -14 -3 -6 -6z"/>
<path d="M6020 612 c23 -4 24 -5 5 -13 -15 -6 -10 -8 20 -8 30 0 35 2 20 9
-18 7 -16 8 10 12 17 3 7 5 -25 5 -30 0 -44 -2 -30 -5z"/>
<path d="M6118 613 c7 -3 16 -2 19 1 4 3 -2 6 -13 5 -11 0 -14 -3 -6 -6z"/>
<path d="M13475 611 c-3 -5 -1 -12 5 -16 12 -7 30 2 30 16 0 12 -27 12 -35 0z"/>
<path d="M13523 603 c0 -8 9 -11 26 -6 36 8 36 10 3 15 -19 3 -29 0 -29 -9z"/>
<path d="M5090 603 c8 -3 7 -9 -1 -19 -10 -12 -9 -13 5 -8 18 7 17 26 -2 30
-7 1 -8 0 -2 -3z"/>
<path d="M5190 603 c0 -4 5 -15 10 -23 8 -13 10 -13 10 2 0 9 -4 20 -10 23 -5
3 -10 3 -10 -2z"/>
<path d="M6533 603 c9 -2 23 -2 30 0 6 3 -1 5 -18 5 -16 0 -22 -2 -12 -5z"/>
<path d="M6127 586 c-8 -9 -20 -16 -26 -16 -6 0 -11 -7 -11 -15 0 -8 5 -15 11
-15 5 0 7 5 3 12 -5 8 -2 9 10 5 10 -4 15 -3 11 3 -3 6 1 10 10 10 9 0 13 5
10 10 -3 6 4 10 17 10 14 0 19 -3 11 -8 -19 -12 2 -36 23 -28 14 6 16 9 5 15
-10 6 -10 10 -2 16 7 4 18 2 25 -5 13 -10 73 -4 62 7 -3 3 -36 7 -74 10 -54 4
-72 1 -85 -11z"/>
<path d="M6472 589 c-13 -5 -35 -6 -48 -3 -15 4 -24 2 -24 -5 0 -16 72 -13 94
4 22 17 13 18 -22 4z"/>
<path d="M2430 580 c0 -5 14 -7 33 -3 45 8 47 13 4 13 -20 0 -37 -4 -37 -10z"/>
<path d="M2510 580 c0 -5 4 -10 9 -10 6 0 13 5 16 10 3 6 -1 10 -9 10 -9 0
-16 -4 -16 -10z"/>
<path d="M6370 580 c0 -5 5 -10 11 -10 5 0 7 5 4 10 -3 6 -8 10 -11 10 -2 0
-4 -4 -4 -10z"/>
<path d="M6510 580 c-13 -9 -13 -10 0 -10 8 0 22 5 30 10 13 9 13 10 0 10 -8
0 -22 -5 -30 -10z"/>
<path d="M6667 574 c6 -15 23 -19 23 -5 0 5 -7 11 -14 14 -10 4 -13 1 -9 -9z"/>
<path d="M13515 580 l-60 -7 50 0 c28 -1 75 2 105 7 54 7 54 7 10 7 -25 0 -72
-3 -105 -7z"/>
<path d="M2293 570 c-13 -5 -23 -11 -23 -13 0 -8 50 5 56 14 6 11 -4 11 -33
-1z"/>
<path d="M5766 564 c-6 -15 -4 -15 11 -3 10 7 20 15 22 16 2 2 -3 3 -11 3 -9
0 -19 -7 -22 -16z"/>
<path d="M13398 573 c7 -3 16 -2 19 1 4 3 -2 6 -13 5 -11 0 -14 -3 -6 -6z"/>
<path d="M1603 555 c0 -8 4 -12 9 -9 5 3 6 10 3 15 -9 13 -12 11 -12 -6z"/>
<path d="M4542 556 c-16 -8 18 -11 149 -13 102 -1 169 2 169 8 0 6 -45 9 -107
9 -60 0 -126 1 -149 3 -23 3 -50 -1 -62 -7z"/>
<path d="M5722 561 c-11 -7 -11 -9 0 -14 9 -3 15 1 15 9 0 8 -1 14 -1 14 -1 0
-7 -4 -14 -9z"/>
<path d="M410 545 c-8 -9 -8 -15 -2 -15 12 0 26 19 19 26 -2 2 -10 -2 -17 -11z"/>
<path d="M5585 550 c-16 -7 -14 -8 12 -7 17 1 29 5 26 10 -5 9 -12 8 -38 -3z"/>
<path d="M6045 550 c3 -5 8 -10 11 -10 2 0 4 5 4 10 0 6 -5 10 -11 10 -5 0 -7
-4 -4 -10z"/>
<path d="M6225 550 c-3 -5 -1 -10 4 -10 6 0 11 5 11 10 0 6 -2 10 -4 10 -3 0
-8 -4 -11 -10z"/>
<path d="M6717 549 c7 -7 15 -10 18 -7 3 3 -2 9 -12 12 -14 6 -15 5 -6 -5z"/>
<path d="M6768 553 c7 -3 16 -2 19 1 4 3 -2 6 -13 5 -11 0 -14 -3 -6 -6z"/>
<path d="M7658 553 c7 -3 16 -2 19 1 4 3 -2 6 -13 5 -11 0 -14 -3 -6 -6z"/>
<path d="M12086 548 c3 -4 17 -5 31 -2 18 5 24 3 19 -4 -5 -8 -1 -10 10 -5 13
5 15 3 9 -7 -6 -9 -4 -11 4 -5 20 12 -4 29 -44 30 -19 1 -32 -2 -29 -7z"/>
<path d="M5380 540 c0 -5 5 -10 10 -10 6 0 10 5 10 10 0 6 -4 10 -10 10 -5 0
-10 -4 -10 -10z"/>
<path d="M5410 540 c0 -5 5 -10 10 -10 6 0 10 5 10 10 0 6 -4 10 -10 10 -5 0
-10 -4 -10 -10z"/>
<path d="M5885 540 c-3 -6 1 -7 9 -4 18 7 21 14 7 14 -6 0 -13 -4 -16 -10z"/>
<path d="M6325 540 c-16 -7 -17 -9 -3 -9 9 -1 20 4 23 9 7 11 7 11 -20 0z"/>
<path d="M6843 540 c-13 -5 -23 -12 -23 -16 0 -3 6 -4 14 -1 8 3 39 2 70 -2
34 -5 53 -4 48 1 -5 5 -20 11 -33 13 -13 1 -31 5 -39 8 -8 3 -25 2 -37 -3z"/>
<path d="M4933 534 c3 -4 25 -8 48 -10 23 -2 39 -1 36 2 -3 3 -25 8 -48 10
-23 2 -39 1 -36 -2z"/>
<path d="M5030 531 c0 -5 9 -7 20 -4 11 3 27 0 35 -7 9 -7 15 -8 15 -2 0 5 -7
13 -16 16 -23 9 -54 7 -54 -3z"/>
<path d="M5141 524 c0 -11 3 -14 6 -6 3 7 2 16 -1 19 -3 4 -6 -2 -5 -13z"/>
<path d="M5267 528 c-15 -11 -11 -13 27 -16 25 -1 48 3 51 8 4 7 -3 9 -22 5
-21 -5 -24 -4 -13 4 13 9 12 11 -6 11 -11 0 -28 -6 -37 -12z"/>
<path d="M6368 533 c7 -3 16 -2 19 1 4 3 -2 6 -13 5 -11 0 -14 -3 -6 -6z"/>
<path d="M7739 531 c11 -7 11 -9 0 -14 -8 -3 -5 -5 7 -4 27 1 27 23 0 25 -15
1 -17 -1 -7 -7z"/>
<path d="M1603 515 c0 -7 6 -11 14 -8 7 3 13 6 13 8 0 2 -6 5 -13 8 -8 3 -14
-1 -14 -8z"/>
<path d="M6400 519 c0 -5 5 -7 10 -4 6 3 10 8 10 11 0 2 -4 4 -10 4 -5 0 -10
-5 -10 -11z"/>
<path d="M6975 520 c3 -5 8 -10 11 -10 2 0 4 5 4 10 0 6 -5 10 -11 10 -5 0 -7
-4 -4 -10z"/>
<path d="M7036 508 c3 -4 11 -5 19 -1 21 7 19 12 -4 10 -11 0 -18 -5 -15 -9z"/>
<path d="M7271 504 c0 -11 3 -14 6 -6 3 7 2 16 -1 19 -3 4 -6 -2 -5 -13z"/>
<path d="M7310 500 c20 -13 33 -13 25 0 -3 6 -14 10 -23 10 -15 0 -15 -2 -2
-10z"/>
<path d="M12190 500 c8 -5 20 -10 25 -10 6 0 3 5 -5 10 -8 5 -19 10 -25 10 -5
0 -3 -5 5 -10z"/>
<path d="M6048 493 c7 -3 16 -2 19 1 4 3 -2 6 -13 5 -11 0 -14 -3 -6 -6z"/>
<path d="M7915 490 c-3 -6 1 -7 9 -4 18 7 21 14 7 14 -6 0 -13 -4 -16 -10z"/>
<path d="M7997 493 c-10 -10 -8 -23 4 -23 5 0 8 4 5 9 -4 5 0 12 6 14 7 3 8 6
2 6 -6 1 -14 -2 -17 -6z"/>
<path d="M5783 475 c0 -11 4 -12 14 -4 7 6 13 13 13 15 0 2 -6 4 -13 4 -8 0
-14 -7 -14 -15z"/>
<path d="M7665 480 c3 -5 11 -10 16 -10 6 0 7 5 4 10 -3 6 -11 10 -16 10 -6 0
-7 -4 -4 -10z"/>
<path d="M1515 470 c-13 -6 -15 -9 -5 -9 8 0 22 4 30 9 18 12 2 12 -25 0z"/>
<path d="M1896 455 c-11 -8 -16 -15 -10 -15 5 0 18 7 28 15 11 8 16 15 10 15
-5 0 -18 -7 -28 -15z"/>
<path d="M5488 463 c7 -3 16 -2 19 1 4 3 -2 6 -13 5 -11 0 -14 -3 -6 -6z"/>
<path d="M1835 430 c-10 -11 -15 -20 -12 -20 4 0 16 9 27 20 11 11 16 20 12
20 -5 0 -17 -9 -27 -20z"/>
<path d="M5248 433 c7 -3 16 -2 19 1 4 3 -2 6 -13 5 -11 0 -14 -3 -6 -6z"/>
<path d="M8368 433 c7 -3 16 -2 19 1 4 3 -2 6 -13 5 -11 0 -14 -3 -6 -6z"/>
<path d="M1468 423 c7 -3 16 -2 19 1 4 3 -2 6 -13 5 -11 0 -14 -3 -6 -6z"/>
<path d="M12640 396 c0 -2 8 -10 18 -17 15 -13 16 -12 3 4 -13 16 -21 21 -21
13z"/>
<path d="M8578 373 c7 -3 16 -2 19 1 4 3 -2 6 -13 5 -11 0 -14 -3 -6 -6z"/>
</g>
</svg>
